0
SECTION
2
HEADER
9
$INSUNITS
70
4
9
$ACADVER
1
AC1014
9
$HANDSEED
5
FFFF
0
ENDSEC
0
SECTION
2
TABLES
0
TABLE
2
VPORT
5
8
100
AcDbSymbolTable
0
ENDTAB
0
TABLE
2
LTYPE
5
5
100
AcDbSymbolTable
70
2
0
LTYPE
5
14
100
AcDbSymbolTableRecord
100
AcDbLinetypeTableRecord
2
BYBLOCK
70
0
0
LTYPE
5
15
100
AcDbSymbolTableRecord
100
AcDbLinetypeTableRecord
2
BYLAYER
70
0
0
ENDTAB
0
TABLE
2
LAYER
5
2
100
AcDbSymbolTable
70
3
0
LAYER
5
50
100
AcDbSymbolTableRecord
100
AcDbLayerTableRecord
2
0
70
0
6
CONTINUOUS
0
LAYER
5
51
100
AcDbSymbolTableRecord
100
AcDbLayerTableRecord
2
CUTOUTS
70
0
62
1
6
CONTINUOUS
0
LAYER
5
52
100
AcDbSymbolTableRecord
100
AcDbLayerTableRecord
2
PERIMETER
70
0
62
5
6
CONTINUOUS
0
ENDTAB
0
TABLE
2
STYLE
5
3
100
AcDbSymbolTable
70
1
0
STYLE
5
11
100
AcDbSymbolTableRecord
100
AcDbTextStyleTableRecord
2
STANDARD
70
0
0
ENDTAB
0
TABLE
2
VIEW
5
6
100
AcDbSymbolTable
0
ENDTAB
0
TABLE
2
UCS
5
7
100
AcDbSymbolTable
0
ENDTAB
0
TABLE
2
APPID
5
9
100
AcDbSymbolTable
70
1
0
APPID
5
12
100
AcDbSymbolTableRecord
100
AcDbRegAppTableRecord
2
ACAD
70
0
0
ENDTAB
0
TABLE
2
DIMSTYLE
5
A
100
AcDbSymbolTable
0
ENDTAB
0
TABLE
2
BLOCK_RECORD
5
1
100
AcDbSymbolTable
70
2
0
BLOCK_RECORD
5
1F
100
AcDbSymbolTableRecord
100
AcDbBlockTableRecord
2
*MODEL_SPACE
0
BLOCK_RECORD
5
1B
100
AcDbSymbolTableRecord
100
AcDbBlockTableRecord
2
*PAPER_SPACE
0
ENDTAB
0
ENDSEC
0
SECTION
2
BLOCKS
0
BLOCK
5
20
100
AcDbEntity
100
AcDbBlockBegin
2
*MODEL_SPACE
0
ENDBLK
5
21
100
AcDbEntity
100
AcDbBlockEnd
0
BLOCK
5
1C
100
AcDbEntity
100
AcDbBlockBegin
2
*PAPER_SPACE
0
ENDBLK
5
1D
100
AcDbEntity
100
AcDbBlockEnd
0
ENDSEC
0
SECTION
2
ENTITIES
0
CIRCLE
5
100
100
AcDbEntity
8
CUTOUTS
100
AcDbCircle
10
-22.738287927907727
20
21.843969762993815
30
0
40
1.4750000000000085
210
0
220
0
230
1
0
CIRCLE
5
101
100
AcDbEntity
8
CUTOUTS
100
AcDbCircle
10
-32.080825873389365
20
29.375037730863063
30
0
40
1.4750000000000085
210
0
220
0
230
1
0
CIRCLE
5
102
100
AcDbEntity
8
CUTOUTS
100
AcDbCircle
10
27.31857796510451
20
-18.507127711651403
30
0
40
3.4999999999999964
210
0
220
0
230
1
0
ARC
5
103
100
AcDbEntity
8
CUTOUTS
100
AcDbCircle
10
28.332625987101512
20
-27.952851961759695
30
0
40
1.5000000000000764
210
0
220
0
230
1
100
AcDbArc
50
-203.87246599999733
51
36.127534000005177
0
ARC
5
104
100
AcDbEntity
8
CUTOUTS
100
AcDbCircle
10
28.172513141522984
20
-26.461421817005775
30
0
40
1.5000000000000027
210
-0
220
0
230
1
100
AcDbArc
50
-23.872465999992588
51
216.12753400000037
0
ARC
5
105
100
AcDbEntity
8
CUTOUTS
100
AcDbCircle
10
19.364283859750159
20
-19.361062888069895
30
0
40
1.4999999999999691
210
0
220
0
230
1
100
AcDbArc
50
-113.87246599999732
51
126.12753400000041
0
ARC
5
106
100
AcDbEntity
8
CUTOUTS
100
AcDbCircle
10
17.872853714996211
20
-19.521175733648359
30
0
40
1.5000000000000129
210
0
220
-0
230
1
100
AcDbArc
50
66.127533999999855
51
306.12753400000349
0
ARC
5
107
100
AcDbEntity
8
CUTOUTS
100
AcDbCircle
10
35.272872070458902
20
-17.653192535232911
30
0
40
1.4999999999999951
210
0
220
-0
230
1
100
AcDbArc
50
66.127534000008097
51
306.12753399999536
0
ARC
5
108
100
AcDbEntity
8
CUTOUTS
100
AcDbCircle
10
36.764302215212822
20
-17.493079689654429
30
0
40
1.5000000000001437
210
0
220
0
230
1
100
AcDbArc
50
-113.87246600000063
51
126.12753400000472
0
ARC
5
109
100
AcDbEntity
8
CUTOUTS
100
AcDbCircle
10
26.46464278868601
20
-10.552833606297041
30
0
40
1.4999999999999412
210
0
220
0
230
1
100
AcDbArc
50
-203.87246599999403
51
36.127533999996857
0
ARC
5
10A
100
AcDbEntity
8
CUTOUTS
100
AcDbCircle
10
26.304529943107553
20
-9.0614034615431205
30
0
40
1.5000000000000626
210
-0
220
0
230
1
100
AcDbArc
50
-23.872466000002007
51
216.12753400000491
0
LINE
5
10B
100
AcDbEntity
8
CUTOUTS
100
AcDbLine
10
-42.279344809722005
20
34.519375634856139
30
0
11
-38.986346394693129
21
34.519375634856445
31
0
0
ARC
5
10C
100
AcDbEntity
8
CUTOUTS
100
AcDbCircle
10
-38.986346394692887
20
28.519375634856452
30
0
40
5.9999999999999973
210
0
220
-0
230
1
100
AcDbArc
50
64.532958975051997
51
90.000000000002373
0
ARC
5
10D
100
AcDbEntity
8
CUTOUTS
100
AcDbCircle
10
-36.836387294329434
20
33.033539551548245
30
0
40
1.0000000000002163
210
-0
220
0
230
1
100
AcDbArc
50
-33.234930511153223
51
64.532958975039591
0
LINE
5
10E
100
AcDbEntity
8
CUTOUTS
100
AcDbLine
10
-35.999956959601505
20
32.485466294449026
30
0
11
-36.497263139247622
21
31.726513054319479
31
0
0
ARC
5
10F
100
AcDbEntity
8
CUTOUTS
100
AcDbCircle
10
-37.33369347397548
20
32.274586311418865
30
0
40
1.0000000000002447
210
0
220
0
230
1
100
AcDbArc
50
249.67880544557175
51
326.76506948883628
0
ARC
5
110
100
AcDbEntity
8
CUTOUTS
100
AcDbCircle
10
-44.279344809722218
20
13.519375634857962
30
0
40
18.999999999998373
210
0
220
-0
230
1
100
AcDbArc
50
69.678805445552825
51
84.275189547775696
0
ARC
5
111
100
AcDbEntity
8
CUTOUTS
100
AcDbCircle
10
-42.279344809722097
20
33.469375634856235
30
0
40
1.0499999999999066
210
0
220
-0
230
1
100
AcDbArc
50
89.999999999994955
51
264.27518954777491
0
LINE
5
112
100
AcDbEntity
8
PERIMETER
100
AcDbLine
10
22.712929603935457
20
-27.600697042406921
30
0
11
23.392843619678469
21
-33.934007170865158
31
0
0
ARC
5
113
100
AcDbEntity
8
PERIMETER
100
AcDbCircle
10
27.369990674485997
20
-33.50703960250263
30
0
40
3.9999999999996994
210
0
220
0
230
1
100
AcDbArc
50
186.12753371408539
51
270.1963824685667
0
ARC
5
114
100
AcDbEntity
8
PERIMETER
100
AcDbCircle
10
27.31857796510451
20
-18.507127711651403
30
0
40
18.999999999999226
210
-0
220
0
230
1
100
AcDbArc
50
270.19638246857153
51
282.0586849596192
0
ARC
5
115
100
AcDbEntity
8
PERIMETER
100
AcDbCircle
10
30.452279641964122
20
-33.176139737020961
30
0
40
3.9999999999995901
210
-0
220
0
230
1
100
AcDbArc
50
-77.941315040382023
51
6.127533714106554
0
LINE
5
116
100
AcDbEntity
8
PERIMETER
100
AcDbLine
10
34.42942669677138
20
-32.749172168656969
30
0
11
33.749512681026886
21
-26.415862040199176
31
0
0
ARC
5
117
100
AcDbEntity
8
PERIMETER
100
AcDbCircle
10
36.73237297213295
20
-26.095636363926662
30
0
40
3.0000000000002642
210
0
220
0
230
1
100
AcDbArc
50
96.127533714091143
51
186.1275337140963
0
LINE
5
118
100
AcDbEntity
8
PERIMETER
100
AcDbLine
10
36.412147295860706
20
-23.112776072820562
30
0
11
42.745457424318751
21
-22.432862057076743
31
0
0
ARC
5
119
100
AcDbEntity
8
PERIMETER
100
AcDbCircle
10
42.318489855955541
20
-18.455715002268871
30
0
40
4.0000000000001155
210
-0
220
0
230
1
100
AcDbArc
50
-83.872466285905361
51
0.19638246856919606
0
ARC
5
11A
100
AcDbEntity
8
PERIMETER
100
AcDbCircle
10
27.31857796510451
20
-18.507127711651403
30
0
40
18.999999999999446
210
0
220
-0
230
1
100
AcDbArc
50
0.19638246857476374
51
12.058684959609179
0
ARC
5
11B
100
AcDbEntity
8
PERIMETER
100
AcDbCircle
10
41.987589990474447
20
-15.373426034794253
30
0
40
3.9999999999999396
210
0
220
-0
230
1
100
AcDbArc
50
12.058684959606135
51
96.127533714083654
0
LINE
5
11C
100
AcDbEntity
8
PERIMETER
100
AcDbLine
10
41.560622422112019
20
-11.396278979986478
30
0
11
35.227312293651522
21
-12.076192995729151
31
0
0
ARC
5
11D
100
AcDbEntity
8
PERIMETER
100
AcDbCircle
10
34.907086617379221
20
-9.0933327046235846
30
0
40
2.9999999999997429
210
0
220
0
230
1
100
AcDbArc
50
186.12753371411293
51
276.12753371409332
0
LINE
5
11E
100
AcDbEntity
8
PERIMETER
100
AcDbLine
10
31.924226326273761
20
-9.413558380896907
30
0
11
31.585221250184176
21
-6.255770436724255
31
0
0
ARC
5
11F
100
AcDbEntity
8
PERIMETER
100
AcDbCircle
10
28.602360959079157
20
-6.5759961129978617
30
0
40
2.9999999999993316
210
0
220
-0
230
1
100
AcDbArc
50
6.1275337141191875
51
83.85863471815162
0
ARC
5
120
100
AcDbEntity
8
PERIMETER
100
AcDbCircle
10
27.31857796510451
20
-18.507127711651403
30
0
40
14.999999999999654
210
0
220
-0
230
1
100
AcDbArc
50
83.858634718144003
51
99.317218818307637
0
ARC
5
121
100
AcDbEntity
8
PERIMETER
100
AcDbCircle
10
22.461566304484045
20
11.097085463652627
30
0
40
15.000000000004505
210
-0
220
0
230
1
100
AcDbArc
50
275.2473466934195
51
279.31721881831839
0
ARC
5
122
100
AcDbEntity
8
PERIMETER
100
AcDbCircle
10
22.048363168632594
20
14.330573548070484
30
0
40
18.258093685376412
210
0
220
0
230
1
100
AcDbArc
50
231.12753371409562
51
275.61058828016922
0
LINE
5
123
100
AcDbEntity
8
PERIMETER
100
AcDbLine
10
10.589784459587461
20
0.11582912572508874
30
0
11
-19.407788206691848
21
25.573282247484919
31
0
0
ARC
5
124
100
AcDbEntity
8
PERIMETER
100
AcDbCircle
10
-22.738287927907727
20
21.843969762993815
30
0
40
5.0000000000000249
210
0
220
-0
230
1
100
AcDbArc
50
48.233234458912534
51
76.969466477264305
0
ARC
5
125
100
AcDbEntity
8
PERIMETER
100
AcDbCircle
10
-20.483585183712066
20
31.586470239530378
30
0
40
4.9999999999999476
210
0
220
0
230
1
100
AcDbArc
50
231.12753371409357
51
256.9694664772253
0
LINE
5
126
100
AcDbEntity
8
PERIMETER
100
AcDbLine
10
-23.621530170330011
20
27.693746095571704
30
0
11
-33.338045428132588
21
35.526279082381002
31
0
0
ARC
5
127
100
AcDbEntity
8
PERIMETER
100
AcDbCircle
10
-38.986346394692887
20
28.519375634856452
30
0
40
8.9999999850987464
210
0
220
-0
230
1
100
AcDbArc
50
51.127533714095179
51
90.00000000000054
0
LINE
5
128
100
AcDbEntity
8
PERIMETER
100
AcDbLine
10
-38.986346394692973
20
37.519375619955198
30
0
11
-46.330825873408806
21
37.519375619955042
31
0
0
LINE
5
129
100
AcDbEntity
8
PERIMETER
100
AcDbLine
10
-46.330825873408806
20
37.519375619955042
30
0
11
-46.33082587340877
21
29.519375649757595
31
0
0
LINE
5
12A
100
AcDbEntity
8
PERIMETER
100
AcDbLine
10
-46.33082587340877
20
29.519375649757595
30
0
11
-44.279344809722787
21
29.519375649757787
31
0
0
ARC
5
12B
100
AcDbEntity
8
PERIMETER
100
AcDbCircle
10
-44.279344809722218
20
13.519375634857962
30
0
40
16.000000014899825
210
0
220
-0
230
1
100
AcDbArc
50
51.125061042780423
51
90.000000000002032
0
LINE
5
12C
100
AcDbEntity
8
PERIMETER
100
AcDbLine
10
-34.237383267268569
20
25.975659545265451
30
0
11
-28.642242148922634
21
21.465387465240859
31
0
0
ARC
5
12D
100
AcDbEntity
8
PERIMETER
100
AcDbCircle
10
-31.780187135540714
20
17.572663321282185
30
0
40
5.0000000000000488
210
0
220
-0
230
1
100
AcDbArc
50
25.285600950910425
51
51.127533714092344
0
ARC
5
12E
100
AcDbEntity
8
PERIMETER
100
AcDbCircle
10
-22.738287927907727
20
21.843969762993815
30
0
40
5.0000000000000169
210
0
220
0
230
1
100
AcDbArc
50
205.28560095091058
51
234.02183296926256
0
LINE
5
12F
100
AcDbEntity
8
PERIMETER
100
AcDbLine
10
-25.675672567285048
20
17.797765185819003
30
0
11
5.5690724810040404
21
-6.1125295046008699
31
0
0
ARC
5
130
100
AcDbEntity
8
PERIMETER
100
AcDbCircle
10
-5.8895062280354171
20
-20.327273926937703
30
0
40
18.258093685366163
210
0
220
-0
230
1
100
AcDbArc
50
6.6444791472261704
51
51.127533714092642
0
ARC
5
131
100
AcDbEntity
8
PERIMETER
100
AcDbCircle
10
-2.6419935884656187
20
-20.044707688020704
30
0
40
15.000000000004043
210
0
220
-0
230
1
100
AcDbArc
50
2.9378486098622902
51
7.0077207337989469
0
ARC
5
132
100
AcDbEntity
8
PERIMETER
100
AcDbCircle
10
27.31857796510451
20
-18.507127711651403
30
0
40
15.000000000001414
210
0
220
0
230
1
100
AcDbArc
50
182.93784860987842
51
198.39643271005306
0
ARC
5
133
100
AcDbEntity
8
PERIMETER
100
AcDbCircle
10
15.931830016115534
20
-22.294207212556554
30
0
40
3.0000000000022182
210
0
220
0
230
1
100
AcDbArc
50
198.39643271004138
51
276.12753371408905
0
LINE
5
134
100
AcDbEntity
8
PERIMETER
100
AcDbLine
10
16.252055692387877
20
-25.277067503664625
30
0
11
19.409843636556829
21
-24.938062427573779
31
0
0
ARC
5
135
100
AcDbEntity
8
PERIMETER
100
AcDbCircle
10
19.730069312829961
20
-27.920922718679186
30
0
40
2.9999999999996656
210
0
220
-0
230
1
100
AcDbArc
50
6.1275337140927872
51
96.127533714109447
0
ENDSEC
0
SECTION
2
OBJECTS
0
DICTIONARY
5
C
100
AcDbDictionary
3
ACAD_GROUP
350
D
3
ACAD_MLINESTYLE
350
17
0
DICTIONARY
5
D
100
AcDbDictionary
0
DICTIONARY
5
1A
330
C
100
AcDbDictionary
0
DICTIONARY
5
17
100
AcDbDictionary
0
ENDSEC
0
EOF
