0
SECTION
2
HEADER
9
$INSUNITS
70
4
9
$ACADVER
1
AC1014
9
$HANDSEED
5
FFFF
0
ENDSEC
0
SECTION
2
TABLES
0
TABLE
2
VPORT
5
8
100
AcDbSymbolTable
0
ENDTAB
0
TABLE
2
LTYPE
5
5
100
AcDbSymbolTable
70
2
0
LTYPE
5
14
100
AcDbSymbolTableRecord
100
AcDbLinetypeTableRecord
2
BYBLOCK
70
0
0
LTYPE
5
15
100
AcDbSymbolTableRecord
100
AcDbLinetypeTableRecord
2
BYLAYER
70
0
0
ENDTAB
0
TABLE
2
LAYER
5
2
100
AcDbSymbolTable
70
3
0
LAYER
5
50
100
AcDbSymbolTableRecord
100
AcDbLayerTableRecord
2
0
70
0
6
CONTINUOUS
0
LAYER
5
51
100
AcDbSymbolTableRecord
100
AcDbLayerTableRecord
2
CUTOUTS
70
0
62
1
6
CONTINUOUS
0
LAYER
5
52
100
AcDbSymbolTableRecord
100
AcDbLayerTableRecord
2
PERIMETER
70
0
62
5
6
CONTINUOUS
0
ENDTAB
0
TABLE
2
STYLE
5
3
100
AcDbSymbolTable
70
1
0
STYLE
5
11
100
AcDbSymbolTableRecord
100
AcDbTextStyleTableRecord
2
STANDARD
70
0
0
ENDTAB
0
TABLE
2
VIEW
5
6
100
AcDbSymbolTable
0
ENDTAB
0
TABLE
2
UCS
5
7
100
AcDbSymbolTable
0
ENDTAB
0
TABLE
2
APPID
5
9
100
AcDbSymbolTable
70
1
0
APPID
5
12
100
AcDbSymbolTableRecord
100
AcDbRegAppTableRecord
2
ACAD
70
0
0
ENDTAB
0
TABLE
2
DIMSTYLE
5
A
100
AcDbSymbolTable
0
ENDTAB
0
TABLE
2
BLOCK_RECORD
5
1
100
AcDbSymbolTable
70
2
0
BLOCK_RECORD
5
1F
100
AcDbSymbolTableRecord
100
AcDbBlockTableRecord
2
*MODEL_SPACE
0
BLOCK_RECORD
5
1B
100
AcDbSymbolTableRecord
100
AcDbBlockTableRecord
2
*PAPER_SPACE
0
ENDTAB
0
ENDSEC
0
SECTION
2
BLOCKS
0
BLOCK
5
20
100
AcDbEntity
100
AcDbBlockBegin
2
*MODEL_SPACE
0
ENDBLK
5
21
100
AcDbEntity
100
AcDbBlockEnd
0
BLOCK
5
1C
100
AcDbEntity
100
AcDbBlockBegin
2
*PAPER_SPACE
0
ENDBLK
5
1D
100
AcDbEntity
100
AcDbBlockEnd
0
ENDSEC
0
SECTION
2
ENTITIES
0
CIRCLE
5
100
100
AcDbEntity
8
CUTOUTS
100
AcDbCircle
10
-14.269082351835854
20
-32.364096923371669
30
0
40
1.4999999999999858
210
0
220
0
230
1
0
CIRCLE
5
101
100
AcDbEntity
8
CUTOUTS
100
AcDbCircle
10
14.231969260268579
20
31.958690630985767
30
0
40
1.4750000000000085
210
0
220
0
230
1
0
CIRCLE
5
102
100
AcDbEntity
8
CUTOUTS
100
AcDbCircle
10
14.231969260268473
20
-32.329985176973025
30
0
40
1.4999999999999858
210
0
220
0
230
1
0
CIRCLE
5
103
100
AcDbEntity
8
CUTOUTS
100
AcDbCircle
10
-14.267999516173331
20
31.916503644541706
30
0
40
1.4750000000000085
210
0
220
0
230
1
0
ARC
5
104
100
AcDbEntity
8
CUTOUTS
100
AcDbCircle
10
6.823135248183072
20
-33.395499664622939
30
0
40
0.49999999999997663
210
0
220
0
230
1
100
AcDbArc
50
109.9999999999992
51
200.00000000000358
0
LINE
5
105
100
AcDbEntity
8
CUTOUTS
100
AcDbLine
10
6.5242990094529683
20
-34.036356046678769
30
0
11
6.3532889377901487
21
-33.566509736285795
31
0
0
ARC
5
106
100
AcDbEntity
8
CUTOUTS
100
AcDbCircle
10
6.9941453198459218
20
-33.865345975015934
30
0
40
0.49999999999999856
210
0
220
0
230
1
100
AcDbArc
50
200.00000000000006
51
289.99999999999966
0
LINE
5
107
100
AcDbEntity
8
CUTOUTS
100
AcDbLine
10
9.5143869434735233
20
-33.480141927094699
30
0
11
7.165155391508752
21
-34.335192285408887
31
0
0
ARC
5
108
100
AcDbEntity
8
CUTOUTS
100
AcDbCircle
10
9.3433768718106887
20
-33.01029561670174
30
0
40
0.50000000000001044
210
-0
220
0
230
1
100
AcDbArc
50
-70.000000000000185
51
20.000000000003023
0
LINE
5
109
100
AcDbEntity
8
CUTOUTS
100
AcDbLine
10
9.6422131105408173
20
-32.369439234645945
30
0
11
9.8132231822036449
21
-32.839285545038877
31
0
0
ARC
5
10A
100
AcDbEntity
8
CUTOUTS
100
AcDbCircle
10
9.1723668001478522
20
-32.540449306308801
30
0
40
0.50000000000001765
210
0
220
-0
230
1
100
AcDbArc
50
20.000000000001894
51
109.99999999999791
0
LINE
5
10B
100
AcDbEntity
8
CUTOUTS
100
AcDbLine
10
6.6521251765202507
20
-32.925653354230001
30
0
11
9.00135672848503
21
-32.070602995915827
31
0
0
LINE
5
10C
100
AcDbEntity
8
CUTOUTS
100
AcDbLine
10
-3.0486488337040769
20
1.6088050353702199
30
0
11
-6.622221580388457
21
-4.1115509206617107
31
0
0
ARC
5
10D
100
AcDbEntity
8
CUTOUTS
100
AcDbCircle
10
-3.8967570478861884
20
2.138628078505227
30
0
40
1.0000000000000053
210
-0
220
0
230
1
100
AcDbArc
50
-31.993499345800302
51
74.539134591781476
0
LINE
5
10E
100
AcDbEntity
8
CUTOUTS
100
AcDbLine
10
-7.2766992187889183
20
4.111029249492737
30
0
11
-3.630176920171837
21
3.1024408380741226
31
0
0
ARC
5
10F
100
AcDbEntity
8
CUTOUTS
100
AcDbCircle
10
-7.5166213337318393
20
3.2435977658807342
30
0
40
0.90000000000000246
210
0
220
-0
230
1
100
AcDbArc
50
74.539134591781121
51
180.86354862654292
0
LINE
5
110
100
AcDbEntity
8
CUTOUTS
100
AcDbLine
10
-8.2852788259306784
20
-3.655499778475785
30
0
11
-8.416519114497552
21
3.2300336893202841
31
0
0
ARC
5
111
100
AcDbEntity
8
CUTOUTS
100
AcDbCircle
10
-7.3855189731523279
20
-3.6347101818401848
30
0
40
0.89999999999999403
210
0
220
0
230
1
100
AcDbArc
50
181.32362455756007
51
328.00650065419768
0
LINE
5
112
100
AcDbEntity
8
CUTOUTS
100
AcDbLine
10
8.9820004838267327
20
7.1288903262718328
30
0
11
-9.0179995161732389
21
7.1288903262718284
31
0
0
ARC
5
113
100
AcDbEntity
8
CUTOUTS
100
AcDbCircle
10
-9.0179995161732389
20
8.1288903262718328
30
0
40
1.0000000000000009
210
0
220
-0
230
1
100
AcDbArc
50
90
51
270
0
LINE
5
114
100
AcDbEntity
8
CUTOUTS
100
AcDbLine
10
-9.0179995161732389
20
9.1288903262718346
30
0
11
8.9820004838267327
21
9.1288903262718346
31
0
0
ARC
5
115
100
AcDbEntity
8
CUTOUTS
100
AcDbCircle
10
8.9820004838267327
20
8.1288903262718328
30
0
40
1.0000000000000009
210
0
220
0
230
1
100
AcDbArc
50
-90
51
90
0
LINE
5
116
100
AcDbEntity
8
CUTOUTS
100
AcDbLine
10
-9.0179995161732744
20
-8.3711096737280677
30
0
11
8.9820004838267327
21
-8.3711096737280677
31
0
0
ARC
5
117
100
AcDbEntity
8
CUTOUTS
100
AcDbCircle
10
8.9820004838267327
20
-9.3711096737280677
30
0
40
1.0000000000000009
210
0
220
0
230
1
100
AcDbArc
50
-90
51
90
0
LINE
5
118
100
AcDbEntity
8
CUTOUTS
100
AcDbLine
10
8.9820004838267327
20
-10.371109673728069
30
0
11
-9.0179995161732744
21
-10.371109673728069
31
0
0
ARC
5
119
100
AcDbEntity
8
CUTOUTS
100
AcDbCircle
10
-9.0179995161732744
20
-9.3711096737280677
30
0
40
1.0000000000000009
210
0
220
-0
230
1
100
AcDbArc
50
90
51
270
0
ARC
5
11A
100
AcDbEntity
8
CUTOUTS
100
AcDbCircle
10
7.4806223013871112
20
3.2435977658807174
30
0
40
0.89999999999999747
210
-0
220
0
230
1
100
AcDbArc
50
-0.86384495898143976
51
105.4608654082169
0
LINE
5
11B
100
AcDbEntity
8
CUTOUTS
100
AcDbLine
10
8.3805200119877004
20
3.2300290350700611
30
0
11
8.2492796877121162
21
-3.6555043601215065
31
0
0
ARC
5
11C
100
AcDbEntity
8
CUTOUTS
100
AcDbCircle
10
7.3495199408076335
20
-3.6347101818401821
30
0
40
0.90000000000000391
210
0
220
0
230
1
100
AcDbArc
50
211.99349934580096
51
358.67608368794822
0
LINE
5
11D
100
AcDbEntity
8
CUTOUTS
100
AcDbLine
10
6.5862225480437395
20
-4.1115509206616974
30
0
11
3.0126498013593861
21
1.6088050353702332
31
0
0
ARC
5
11E
100
AcDbEntity
8
CUTOUTS
100
AcDbCircle
10
3.8607580155414931
20
2.1386280785052354
30
0
40
1.0000000000000038
210
0
220
0
230
1
100
AcDbArc
50
105.46086540821858
51
211.99349934580019
0
LINE
5
11F
100
AcDbEntity
8
CUTOUTS
100
AcDbLine
10
3.5941778878271413
20
3.1024408380741297
30
0
11
7.2407001864442213
21
4.1110292494927236
31
0
0
LINE
5
120
100
AcDbEntity
8
CUTOUTS
100
AcDbLine
10
-5.2654244634676868
20
-25.601143760177706
30
0
11
-5.2654244634676832
21
-22.601143760177706
31
0
0
ARC
5
121
100
AcDbEntity
8
CUTOUTS
100
AcDbCircle
10
-4.2654244634676868
20
-22.601143760177699
30
0
40
1.0000000000000004
210
-0
220
0
230
1
100
AcDbArc
50
0
51
180
0
LINE
5
122
100
AcDbEntity
8
CUTOUTS
100
AcDbLine
10
-3.2654244634676859
20
-22.601143760177706
30
0
11
-3.2654244634676854
21
-25.601143760177706
31
0
0
ARC
5
123
100
AcDbEntity
8
CUTOUTS
100
AcDbCircle
10
-4.2654244634676868
20
-25.601143760177706
30
0
40
1.0000000000000009
210
0
220
0
230
1
100
AcDbArc
50
-180
51
0
0
LINE
5
124
100
AcDbEntity
8
CUTOUTS
100
AcDbLine
10
-9.0179995161732389
20
14.128890326271835
30
0
11
8.9820004838267327
21
14.12889032627184
31
0
0
ARC
5
125
100
AcDbEntity
8
CUTOUTS
100
AcDbCircle
10
8.9820004838267327
20
13.128890326271833
30
0
40
1.0000000000000009
210
0
220
0
230
1
100
AcDbArc
50
-90
51
90
0
LINE
5
126
100
AcDbEntity
8
CUTOUTS
100
AcDbLine
10
8.9820004838267327
20
12.128890326271833
30
0
11
-9.0179995161732389
21
12.128890326271833
31
0
0
ARC
5
127
100
AcDbEntity
8
CUTOUTS
100
AcDbCircle
10
-9.0179995161732389
20
13.128890326271833
30
0
40
1.0000000000000009
210
0
220
-0
230
1
100
AcDbArc
50
90
51
270
0
LINE
5
128
100
AcDbEntity
8
CUTOUTS
100
AcDbLine
10
8.9820004838267327
20
-15.371109673728069
30
0
11
-9.0179995161732744
21
-15.371109673728069
31
0
0
ARC
5
129
100
AcDbEntity
8
CUTOUTS
100
AcDbCircle
10
-9.0179995161732744
20
-14.371109673728068
30
0
40
1.0000000000000009
210
0
220
-0
230
1
100
AcDbArc
50
90
51
270
0
LINE
5
12A
100
AcDbEntity
8
CUTOUTS
100
AcDbLine
10
-9.0179995161732744
20
-13.371109673728068
30
0
11
8.9820004838267327
21
-13.371109673728068
31
0
0
ARC
5
12B
100
AcDbEntity
8
CUTOUTS
100
AcDbCircle
10
8.9820004838267327
20
-14.371109673728068
30
0
40
1.0000000000000009
210
0
220
0
230
1
100
AcDbArc
50
-90
51
90
0
LINE
5
12C
100
AcDbEntity
8
CUTOUTS
100
AcDbLine
10
5.2345755365323274
20
-22.601143760177706
30
0
11
5.2345755365323239
21
-25.601143760177706
31
0
0
ARC
5
12D
100
AcDbEntity
8
CUTOUTS
100
AcDbCircle
10
4.2345755365323274
20
-25.601143760177706
30
0
40
0.99999999999999978
210
0
220
0
230
1
100
AcDbArc
50
-180
51
0
0
LINE
5
12E
100
AcDbEntity
8
CUTOUTS
100
AcDbLine
10
3.2345755365323283
20
-25.601143760177706
30
0
11
3.2345755365323283
21
-22.601143760177695
31
0
0
ARC
5
12F
100
AcDbEntity
8
CUTOUTS
100
AcDbCircle
10
4.2345755365323274
20
-22.601143760177699
30
0
40
0.99999999999999978
210
-0
220
0
230
1
100
AcDbArc
50
0
51
180
0
LINE
5
130
100
AcDbEntity
8
CUTOUTS
100
AcDbLine
10
-9.0322056554194692
20
-32.070602995915792
30
0
11
-6.6829741034547201
21
-32.925653354229972
31
0
0
ARC
5
131
100
AcDbEntity
8
CUTOUTS
100
AcDbCircle
10
-6.8539841751175654
20
-33.395499664622946
30
0
40
0.50000000000003197
210
-0
220
0
230
1
100
AcDbArc
50
-20.000000000004761
51
69.999999999999488
0
LINE
5
132
100
AcDbEntity
8
CUTOUTS
100
AcDbLine
10
-6.384137864724595
20
-33.56650973628583
30
0
11
-6.5551479363874403
21
-34.036356046678733
31
0
0
ARC
5
133
100
AcDbEntity
8
CUTOUTS
100
AcDbCircle
10
-7.0249942467804143
20
-33.86534597501587
30
0
40
0.50000000000002975
210
0
220
0
230
1
100
AcDbArc
50
250.00000000000176
51
339.99999999999778
0
LINE
5
134
100
AcDbEntity
8
CUTOUTS
100
AcDbLine
10
-7.1960043184432445
20
-34.335192285408858
30
0
11
-9.5452358704080158
21
-33.480141927094678
31
0
0
ARC
5
135
100
AcDbEntity
8
CUTOUTS
100
AcDbCircle
10
-9.3742257987451953
20
-33.01029561670174
30
0
40
0.49999999999998046
210
0
220
0
230
1
100
AcDbArc
50
160.00000000000088
51
250.00000000000088
0
LINE
5
136
100
AcDbEntity
8
CUTOUTS
100
AcDbLine
10
-9.8440721091381338
20
-32.839285545038919
30
0
11
-9.6730620374752956
21
-32.36943923464591
31
0
0
ARC
5
137
100
AcDbEntity
8
CUTOUTS
100
AcDbCircle
10
-9.2032157270823216
20
-32.540449306308766
30
0
40
0.50000000000002909
210
0
220
-0
230
1
100
AcDbArc
50
69.999999999998835
51
159.99999999999847
0
ARC
5
138
100
AcDbEntity
8
PERIMETER
100
AcDbCircle
10
-16.758036147188943
20
-21.897971624327703
30
0
40
1.0000000000000009
210
0
220
-0
230
1
100
AcDbArc
50
90
51
180.01059360029814
0
LINE
5
139
100
AcDbEntity
8
PERIMETER
100
AcDbLine
10
-17.758036130096194
20
-21.898156517531504
30
0
11
-17.756098602189883
21
-32.377329539336721
31
0
0
ARC
5
13A
100
AcDbEntity
8
PERIMETER
100
AcDbCircle
10
-14.269082351835854
20
-32.364096923371669
30
0
40
3.4870413579936743
210
0
220
0
230
1
100
AcDbArc
50
180.21742640495603
51
269.99982734107402
0
LINE
5
13B
100
AcDbEntity
8
PERIMETER
100
AcDbLine
10
-14.269092859919013
20
-35.851138281349513
30
0
11
-12.52269896416111
21
-35.851143544033597
31
0
0
ARC
5
13C
100
AcDbEntity
8
PERIMETER
100
AcDbCircle
10
-12.52269896416111
20
-34.351143544033647
30
0
40
1.4999999999999503
210
0
220
0
230
1
100
AcDbArc
50
270
51
318.60410215562854
0
ARC
5
13D
100
AcDbEntity
8
PERIMETER
100
AcDbCircle
10
-10.272223718942255
20
-36.334918019788603
30
0
40
1.4999999999999989
210
0
220
-0
230
1
100
AcDbArc
50
69.999999999998806
51
138.6041021556274
0
LINE
5
13E
100
AcDbEntity
8
PERIMETER
100
AcDbLine
10
-9.759193503953723
20
-34.925379088609752
30
0
11
-8.0938503288143853
21
-35.531514434198861
31
0
0
ARC
5
13F
100
AcDbEntity
8
PERIMETER
100
AcDbCircle
10
-6.2811435691882505
20
-30.55114354403376
30
0
40
5.2999999999998266
210
0
220
0
230
1
100
AcDbArc
50
249.99999999999829
51
269.99999999999983
0
LINE
5
140
100
AcDbEntity
8
PERIMETER
100
AcDbLine
10
-6.2811435691882682
20
-35.851143544033583
30
0
11
-6.2654244634672533
21
-35.851143544033597
31
0
0
ARC
5
141
100
AcDbEntity
8
PERIMETER
100
AcDbCircle
10
-6.2654244634664007
20
-32.839874712244075
30
0
40
3.0112688317895175
210
0
220
0
230
1
100
AcDbArc
50
269.9999999999838
51
355.04164243212563
0
ARC
5
142
100
AcDbEntity
8
PERIMETER
100
AcDbCircle
10
-0.015424463467679228
20
-33.100143760177694
30
0
40
3.2499999999996017
210
0
220
-0
230
1
100
AcDbArc
50
0
51
180
0
ARC
5
143
100
AcDbEntity
8
PERIMETER
100
AcDbCircle
10
6.2345755363481299
20
-32.839874712444605
30
0
40
3.0112688315899554
210
0
220
0
230
1
100
AcDbArc
50
184.95835756437393
51
270.00000000351309
0
LINE
5
144
100
AcDbEntity
8
PERIMETER
100
AcDbLine
10
6.2345755365327671
20
-35.851143544034564
30
0
11
6.2502946422536549
21
-35.851143544033597
31
0
0
ARC
5
145
100
AcDbEntity
8
PERIMETER
100
AcDbCircle
10
6.2502946422536549
20
-30.551143544033334
30
0
40
5.3000000000002601
210
0
220
0
230
1
100
AcDbArc
50
270
51
290.00000000000085
0
LINE
5
146
100
AcDbEntity
8
PERIMETER
100
AcDbLine
10
8.0630014018798626
20
-35.531514434198868
30
0
11
9.7283445770192518
21
-34.925379088609738
31
0
0
ARC
5
147
100
AcDbEntity
8
PERIMETER
100
AcDbCircle
10
10.241374792007781
20
-36.334918019788645
30
0
40
1.5000000000000522
210
0
220
-0
230
1
100
AcDbArc
50
41.395897844373771
51
110.0000000000004
0
ARC
5
148
100
AcDbEntity
8
PERIMETER
100
AcDbCircle
10
12.491850037226692
20
-34.351143544033576
30
0
40
1.5000000000000202
210
0
220
0
230
1
100
AcDbArc
50
221.39589784437206
51
269.9999999999992
0
LINE
5
149
100
AcDbEntity
8
PERIMETER
100
AcDbLine
10
12.491850037226673
20
-35.85114354403359
30
0
11
14.238233424900494
21
-35.851138281364541
31
0
0
ARC
5
14A
100
AcDbEntity
8
PERIMETER
100
AcDbCircle
10
14.231969260268473
20
-32.329985176973025
30
0
40
3.5211586763911367
210
-0
220
0
230
1
100
AcDbArc
50
-89.89807037458614
51
0.94634990026092902
0
LINE
5
14B
100
AcDbEntity
8
PERIMETER
100
AcDbLine
10
17.75264764621766
20
-32.271829119379575
30
0
11
17.722037097749816
21
-21.8981565175315
31
0
0
ARC
5
14C
100
AcDbEntity
8
PERIMETER
100
AcDbCircle
10
16.722037114842582
20
-21.897971624327703
30
0
40
0.99999999999998224
210
-0
220
0
230
1
100
AcDbArc
50
-0.010593600298173682
51
90
0
ARC
5
14D
100
AcDbEntity
8
PERIMETER
100
AcDbCircle
10
16.722037114842585
20
-19.897971624327695
30
0
40
1.0000000000000053
210
0
220
0
230
1
100
AcDbArc
50
180
51
269.99999999999983
0
LINE
5
14E
100
AcDbEntity
8
PERIMETER
100
AcDbLine
10
15.72203711484258
20
-19.897971624327703
30
0
11
15.722037114842566
21
-6.8983419577028959
31
0
0
ARC
5
14F
100
AcDbEntity
8
PERIMETER
100
AcDbCircle
10
16.722037114842582
20
-6.8983419577028959
30
0
40
1.0000000000000009
210
0
220
-0
230
1
100
AcDbArc
50
90
51
180
0
ARC
5
150
100
AcDbEntity
8
PERIMETER
100
AcDbCircle
10
16.722037114842582
20
-4.8983419577028968
30
0
40
0.99999999999999867
210
0
220
0
230
1
100
AcDbArc
50
-90
51
0.010593600298158191
0
LINE
5
151
100
AcDbEntity
8
PERIMETER
100
AcDbLine
10
17.72203709774983
20
-4.8981570644990953
30
0
11
17.722037097749833
21
3.6018416574030709
31
0
0
ARC
5
152
100
AcDbEntity
8
PERIMETER
100
AcDbCircle
10
16.722037114842582
20
3.6020265506068725
30
0
40
1
210
-0
220
0
230
1
100
AcDbArc
50
-0.010593600298173682
51
90
0
ARC
5
153
100
AcDbEntity
8
PERIMETER
100
AcDbCircle
10
16.722037114842582
20
5.6020265506068743
30
0
40
1.0000000000000053
210
0
220
0
230
1
100
AcDbArc
50
180
51
270
0
LINE
5
154
100
AcDbEntity
8
PERIMETER
100
AcDbLine
10
15.722037114842575
20
5.6020265506068734
30
0
11
15.722037114842566
21
18.601656764198239
31
0
0
ARC
5
155
100
AcDbEntity
8
PERIMETER
100
AcDbCircle
10
16.722037114842582
20
18.601656764198239
30
0
40
1.0000000000000031
210
0
220
0
230
1
100
AcDbArc
50
90
51
180
0
ARC
5
156
100
AcDbEntity
8
PERIMETER
100
AcDbCircle
10
16.722037114842582
20
20.601656764198243
30
0
40
1.0000000000000009
210
0
220
0
230
1
100
AcDbArc
50
-90
51
0.010593600298158191
0
LINE
5
157
100
AcDbEntity
8
PERIMETER
100
AcDbLine
10
17.722037097749833
20
20.601841657402041
30
0
11
17.731968050495105
21
31.955780577190062
31
0
0
ARC
5
158
100
AcDbEntity
8
PERIMETER
100
AcDbCircle
10
14.231969260268579
20
31.958690630985767
30
0
40
3.5000000000000342
210
-0
220
0
230
1
100
AcDbArc
50
-0.047638234243598712
51
163.89856264565165
0
LINE
5
159
100
AcDbEntity
8
PERIMETER
100
AcDbLine
10
10.869266570828241
20
32.929376276512144
30
0
11
10.86546217644271
21
32.916196883894159
31
0
0
ARC
5
15A
100
AcDbEntity
8
PERIMETER
100
AcDbCircle
10
14.231969260268579
20
31.958690630985767
30
0
40
3.5000268812979751
210
0
220
0
230
1
100
AcDbArc
50
161.70282519636447
51
164.12312002609821
0
LINE
5
15B
100
AcDbEntity
8
PERIMETER
100
AcDbLine
10
10.908900381090831
20
33.057508811600172
30
0
11
9.00168959562839
21
27.289682141988024
31
0
0
ARC
5
15C
100
AcDbEntity
8
PERIMETER
100
AcDbCircle
10
-0.017999516153908157
20
30.272165725647127
30
0
40
9.5000000000000036
210
0
220
0
230
1
100
AcDbArc
50
198.41938085549543
51
341.7028251963647
0
LINE
5
15D
100
AcDbEntity
8
PERIMETER
100
AcDbLine
10
-9.0313067831563263
20
27.270450864005294
30
0
11
-10.946928358223216
21
33.022524814804605
31
0
0
ARC
5
15E
100
AcDbEntity
8
PERIMETER
100
AcDbCircle
10
-14.267999516173331
20
31.916503644541706
30
0
40
3.5003994722370995
210
0
220
-0
230
1
100
AcDbArc
50
15.342206785667553
51
18.419380855495941
0
LINE
5
15F
100
AcDbEntity
8
PERIMETER
100
AcDbLine
10
-10.892344566198048
20
32.842651647803137
30
0
11
-10.907105001566284
21
32.893431513773642
31
0
0
ARC
5
160
100
AcDbEntity
8
PERIMETER
100
AcDbCircle
10
-14.267999516173331
20
31.916503644541706
30
0
40
3.4999999999996838
210
0
220
-0
230
1
100
AcDbArc
50
16.207824741783554
51
180.1696172134933
0
LINE
5
161
100
AcDbEntity
8
PERIMETER
100
AcDbLine
10
-17.767984179459148
20
31.906142333723565
30
0
11
-17.758036130096176
21
20.601841657402048
31
0
0
ARC
5
162
100
AcDbEntity
8
PERIMETER
100
AcDbCircle
10
-16.758036147188943
20
20.601656764198243
30
0
40
0.99999999999998224
210
0
220
0
230
1
100
AcDbArc
50
179.98940639970186
51
270
0
ARC
5
163
100
AcDbEntity
8
PERIMETER
100
AcDbCircle
10
-16.758036147188946
20
18.601656764198239
30
0
40
1.0000000000000075
210
0
220
-0
230
1
100
AcDbArc
50
0
51
89.999999999999801
0
LINE
5
164
100
AcDbEntity
8
PERIMETER
100
AcDbLine
10
-15.758036147188939
20
18.601656764198239
30
0
11
-15.75803614718893
21
5.6020265506068734
31
0
0
ARC
5
165
100
AcDbEntity
8
PERIMETER
100
AcDbCircle
10
-16.758036147188943
20
5.6020265506068734
30
0
40
1.0000000000000009
210
0
220
0
230
1
100
AcDbArc
50
-90
51
0
0
ARC
5
166
100
AcDbEntity
8
PERIMETER
100
AcDbCircle
10
-16.758036147188943
20
3.6020265506068725
30
0
40
0.99999999999999978
210
0
220
-0
230
1
100
AcDbArc
50
90
51
180.01059360029814
0
LINE
5
167
100
AcDbEntity
8
PERIMETER
100
AcDbLine
10
-17.758036130096194
20
3.6018416574030718
30
0
11
-17.758036130096176
21
-4.8981570644990979
31
0
0
ARC
5
168
100
AcDbEntity
8
PERIMETER
100
AcDbCircle
10
-16.758036147188943
20
-4.8983419577028968
30
0
40
0.99999999999998224
210
0
220
0
230
1
100
AcDbArc
50
179.98940639970186
51
270
0
ARC
5
169
100
AcDbEntity
8
PERIMETER
100
AcDbCircle
10
-16.758036147188943
20
-6.8983419577028959
30
0
40
1.0000000000000009
210
0
220
-0
230
1
100
AcDbArc
50
0
51
90
0
LINE
5
16A
100
AcDbEntity
8
PERIMETER
100
AcDbLine
10
-15.758036147188943
20
-6.8983419577028959
30
0
11
-15.75803614718893
21
-19.897971624327703
31
0
0
ARC
5
16B
100
AcDbEntity
8
PERIMETER
100
AcDbCircle
10
-16.75803614718895
20
-19.897971624327695
30
0
40
1.0000000000000053
210
-0
220
0
230
1
100
AcDbArc
50
270.0000000000004
51
360
0
ENDSEC
0
SECTION
2
OBJECTS
0
DICTIONARY
5
C
100
AcDbDictionary
3
ACAD_GROUP
350
D
3
ACAD_MLINESTYLE
350
17
0
DICTIONARY
5
D
100
AcDbDictionary
0
DICTIONARY
5
1A
330
C
100
AcDbDictionary
0
DICTIONARY
5
17
100
AcDbDictionary
0
ENDSEC
0
EOF
