0
SECTION
2
HEADER
9
$INSUNITS
70
4
9
$ACADVER
1
AC1014
9
$HANDSEED
5
FFFF
0
ENDSEC
0
SECTION
2
TABLES
0
TABLE
2
VPORT
5
8
100
AcDbSymbolTable
0
ENDTAB
0
TABLE
2
LTYPE
5
5
100
AcDbSymbolTable
70
2
0
LTYPE
5
14
100
AcDbSymbolTableRecord
100
AcDbLinetypeTableRecord
2
BYBLOCK
70
0
0
LTYPE
5
15
100
AcDbSymbolTableRecord
100
AcDbLinetypeTableRecord
2
BYLAYER
70
0
0
ENDTAB
0
TABLE
2
LAYER
5
2
100
AcDbSymbolTable
70
3
0
LAYER
5
50
100
AcDbSymbolTableRecord
100
AcDbLayerTableRecord
2
0
70
0
6
CONTINUOUS
0
LAYER
5
51
100
AcDbSymbolTableRecord
100
AcDbLayerTableRecord
2
CUTOUTS
70
0
62
1
6
CONTINUOUS
0
LAYER
5
52
100
AcDbSymbolTableRecord
100
AcDbLayerTableRecord
2
PERIMETER
70
0
62
5
6
CONTINUOUS
0
ENDTAB
0
TABLE
2
STYLE
5
3
100
AcDbSymbolTable
70
1
0
STYLE
5
11
100
AcDbSymbolTableRecord
100
AcDbTextStyleTableRecord
2
STANDARD
70
0
0
ENDTAB
0
TABLE
2
VIEW
5
6
100
AcDbSymbolTable
0
ENDTAB
0
TABLE
2
UCS
5
7
100
AcDbSymbolTable
0
ENDTAB
0
TABLE
2
APPID
5
9
100
AcDbSymbolTable
70
1
0
APPID
5
12
100
AcDbSymbolTableRecord
100
AcDbRegAppTableRecord
2
ACAD
70
0
0
ENDTAB
0
TABLE
2
DIMSTYLE
5
A
100
AcDbSymbolTable
0
ENDTAB
0
TABLE
2
BLOCK_RECORD
5
1
100
AcDbSymbolTable
70
2
0
BLOCK_RECORD
5
1F
100
AcDbSymbolTableRecord
100
AcDbBlockTableRecord
2
*MODEL_SPACE
0
BLOCK_RECORD
5
1B
100
AcDbSymbolTableRecord
100
AcDbBlockTableRecord
2
*PAPER_SPACE
0
ENDTAB
0
ENDSEC
0
SECTION
2
BLOCKS
0
BLOCK
5
20
100
AcDbEntity
100
AcDbBlockBegin
2
*MODEL_SPACE
0
ENDBLK
5
21
100
AcDbEntity
100
AcDbBlockEnd
0
BLOCK
5
1C
100
AcDbEntity
100
AcDbBlockBegin
2
*PAPER_SPACE
0
ENDBLK
5
1D
100
AcDbEntity
100
AcDbBlockEnd
0
ENDSEC
0
SECTION
2
ENTITIES
0
CIRCLE
5
100
100
AcDbEntity
8
CUTOUTS
100
AcDbCircle
10
14.249999999999581
20
32.144337903857071
30
0
40
1.4750000000000085
210
0
220
0
230
1
0
CIRCLE
5
101
100
AcDbEntity
8
CUTOUTS
100
AcDbCircle
10
23.592537945481133
20
-39.67540587197086
30
0
40
1.4750000000000085
210
0
220
0
230
1
0
CIRCLE
5
102
100
AcDbEntity
8
CUTOUTS
100
AcDbCircle
10
9.999999999999396
20
2.999999999877867
30
0
40
3.0000000000000004
210
0
220
0
230
1
0
CIRCLE
5
103
100
AcDbEntity
8
CUTOUTS
100
AcDbCircle
10
-23.592537945482235
20
-39.67540587197086
30
0
40
1.4750000000000085
210
0
220
0
230
1
0
CIRCLE
5
104
100
AcDbEntity
8
CUTOUTS
100
AcDbCircle
10
-14.250000000000647
20
-32.144337904101555
30
0
40
1.4750000000000085
210
0
220
0
230
1
0
CIRCLE
5
105
100
AcDbEntity
8
CUTOUTS
100
AcDbCircle
10
14.249999999999581
20
-32.144337904101555
30
0
40
1.4750000000000085
210
0
220
0
230
1
0
CIRCLE
5
106
100
AcDbEntity
8
CUTOUTS
100
AcDbCircle
10
-10.000000000000604
20
-17.000000000122132
30
0
40
3.0000000000000004
210
0
220
0
230
1
0
CIRCLE
5
107
100
AcDbEntity
8
CUTOUTS
100
AcDbCircle
10
-14.250000000000647
20
32.144337903857071
30
0
40
1.4750000000000085
210
0
220
0
230
1
0
CIRCLE
5
108
100
AcDbEntity
8
CUTOUTS
100
AcDbCircle
10
23.592537945481169
20
39.675405871726383
30
0
40
1.4750000000000085
210
0
220
0
230
1
0
CIRCLE
5
109
100
AcDbEntity
8
CUTOUTS
100
AcDbCircle
10
-10.000000000000497
20
2.9999999998777538
30
0
40
3.0000000000000004
210
0
220
0
230
1
0
CIRCLE
5
10A
100
AcDbEntity
8
CUTOUTS
100
AcDbCircle
10
9.999999999999396
20
-17.000000000122132
30
0
40
3.0000000000000004
210
0
220
0
230
1
0
CIRCLE
5
10B
100
AcDbEntity
8
CUTOUTS
100
AcDbCircle
10
-23.592537945482235
20
39.675405871726383
30
0
40
1.4750000000000085
210
0
220
0
230
1
0
ARC
5
10C
100
AcDbEntity
8
CUTOUTS
100
AcDbCircle
10
-8.997132399414582
20
29.244789323301219
30
0
40
1.000000000000272
210
0
220
-0
230
1
100
AcDbArc
50
69.678805445571371
51
146.76506948883352
0
LINE
5
10D
100
AcDbEntity
8
CUTOUTS
100
AcDbLine
10
-10.330868913788535
20
29.033909340271098
30
0
11
-9.8335627341424381
21
29.792862580400662
31
0
0
ARC
5
10E
100
AcDbEntity
8
CUTOUTS
100
AcDbCircle
10
-9.4944385790606347
20
28.485836083171883
30
0
40
1.0000000000001847
210
0
220
0
230
1
100
AcDbArc
50
146.7650694888458
51
244.53295897503816
0
ARC
5
10F
100
AcDbEntity
8
CUTOUTS
100
AcDbCircle
10
-7.3444794786971119
20
32.999999999863931
30
0
40
6.0000000000002318
210
0
220
0
230
1
100
AcDbArc
50
244.5329589750522
51
270.00000000000148
0
LINE
5
110
100
AcDbEntity
8
CUTOUTS
100
AcDbLine
10
-4.0514810636680796
20
26.999999999863917
30
0
11
-7.3444794786969556
21
26.999999999863704
31
0
0
ARC
5
111
100
AcDbEntity
8
CUTOUTS
100
AcDbCircle
10
-4.0514810636679872
20
28.049999999863857
30
0
40
1.0499999999999421
210
0
220
0
230
1
100
AcDbArc
50
-90.000000000005031
51
84.275189547774801
0
ARC
5
112
100
AcDbEntity
8
CUTOUTS
100
AcDbCircle
10
-2.051481063667957
20
47.999999999861494
30
0
40
18.999999999997716
210
0
220
0
230
1
100
AcDbArc
50
249.67880544555246
51
264.27518954777577
0
LINE
5
113
100
AcDbEntity
8
CUTOUTS
100
AcDbLine
10
-6.5000000000004299
20
14.356724585587259
30
0
11
6.4999999999995062
21
14.356724585587251
31
0
0
ARC
5
114
100
AcDbEntity
8
CUTOUTS
100
AcDbCircle
10
6.4999999999995062
20
13.356724585587244
30
0
40
1.0000000000000053
210
-0
220
0
230
1
100
AcDbArc
50
-90
51
90
0
LINE
5
115
100
AcDbEntity
8
CUTOUTS
100
AcDbLine
10
6.4999999999995062
20
12.356724585587241
30
0
11
-6.5000000000004299
21
12.356724585587248
31
0
0
ARC
5
116
100
AcDbEntity
8
CUTOUTS
100
AcDbCircle
10
-6.5000000000004299
20
13.356724585587255
30
0
40
1.0000000000000053
210
0
220
-0
230
1
100
AcDbArc
50
90
51
270
0
LINE
5
117
100
AcDbEntity
8
CUTOUTS
100
AcDbLine
10
-6.5000000000005009
20
-4.5000000001222284
30
0
11
6.4999999999994191
21
-4.5000000001222284
31
0
0
ARC
5
118
100
AcDbEntity
8
CUTOUTS
100
AcDbCircle
10
6.4999999999994174
20
-5.5000000001222338
30
0
40
1.0000000000000053
210
0
220
0
230
1
100
AcDbArc
50
-90.000000000000099
51
89.999999999999901
0
LINE
5
119
100
AcDbEntity
8
CUTOUTS
100
AcDbLine
10
6.4999999999994156
20
-6.5000000001222391
30
0
11
-6.5000000000005009
21
-6.5000000001222213
31
0
0
ARC
5
11A
100
AcDbEntity
8
CUTOUTS
100
AcDbCircle
10
-6.5000000000005009
20
-5.5000000001222249
30
0
40
0.99999999999999645
210
0
220
-0
230
1
100
AcDbArc
50
90
51
270
0
LINE
5
11B
100
AcDbEntity
8
CUTOUTS
100
AcDbLine
10
6.4999999999995284
20
17.356724585587212
30
0
11
-6.5000000000004254
21
17.35672458558723
31
0
0
ARC
5
11C
100
AcDbEntity
8
CUTOUTS
100
AcDbCircle
10
-6.5000000000004299
20
18.356724585587227
30
0
40
0.99999999999999645
210
0
220
0
230
1
100
AcDbArc
50
90.000000000000256
51
270.00000000000023
0
LINE
5
11D
100
AcDbEntity
8
CUTOUTS
100
AcDbLine
10
-6.5000000000004343
20
19.356724585587223
30
0
11
6.4999999999995195
21
19.356724585587241
31
0
0
ARC
5
11E
100
AcDbEntity
8
CUTOUTS
100
AcDbCircle
10
6.4999999999995239
20
18.356724585587227
30
0
40
1.0000000000000142
210
-0
220
0
230
1
100
AcDbArc
50
-89.999999999999744
51
90.000000000000256
0
LINE
5
11F
100
AcDbEntity
8
CUTOUTS
100
AcDbLine
10
-7.3444794786969636
20
-27.000000000108173
30
0
11
-4.0514810636680787
21
-27.000000000108439
31
0
0
ARC
5
120
100
AcDbEntity
8
CUTOUTS
100
AcDbCircle
10
-7.3444794786971555
20
-33.000000000108194
30
0
40
6.0000000000000187
210
0
220
-0
230
1
100
AcDbArc
50
89.999999999998181
51
115.46704102494827
0
ARC
5
121
100
AcDbEntity
8
CUTOUTS
100
AcDbCircle
10
-9.4944385790606471
20
-28.48583608341638
30
0
40
1.0000000000001936
210
0
220
0
230
1
100
AcDbArc
50
115.46704102496093
51
213.23493051115389
0
LINE
5
122
100
AcDbEntity
8
CUTOUTS
100
AcDbLine
10
-9.8335627341424576
20
-29.792862580645135
30
0
11
-10.33086891378856
21
-29.033909340515596
31
0
0
ARC
5
123
100
AcDbEntity
8
CUTOUTS
100
AcDbCircle
10
-8.9971323994146122
20
-29.244789323545739
30
0
40
1.0000000000002389
210
0
220
0
230
1
100
AcDbArc
50
213.23493051116458
51
290.32119455442978
0
ARC
5
124
100
AcDbEntity
8
CUTOUTS
100
AcDbCircle
10
-2.0514810636679748
20
-48.000000000105956
30
0
40
18.99999999999773
210
0
220
0
230
1
100
AcDbArc
50
95.724810452224247
51
110.32119455444754
0
ARC
5
125
100
AcDbEntity
8
CUTOUTS
100
AcDbCircle
10
-4.0514810636680032
20
-28.050000000108348
30
0
40
1.0499999999998977
210
-0
220
0
230
1
100
AcDbArc
50
-84.275189547775469
51
90.000000000004221
0
ARC
5
126
100
AcDbEntity
8
CUTOUTS
100
AcDbCircle
10
7.3444794786969521
20
32.999999999863661
30
0
40
6.0000000000001652
210
0
220
0
230
1
100
AcDbArc
50
269.99999999999676
51
295.46704102494624
0
LINE
5
127
100
AcDbEntity
8
CUTOUTS
100
AcDbLine
10
7.344479478696611
20
26.999999999863494
30
0
11
4.0514810636677279
21
26.999999999863796
31
0
0
ARC
5
128
100
AcDbEntity
8
CUTOUTS
100
AcDbCircle
10
4.0514810636676675
20
28.049999999863743
30
0
40
1.0499999999999454
210
0
220
0
230
1
100
AcDbArc
50
95.724810452223764
51
270.0000000000033
0
ARC
5
129
100
AcDbEntity
8
CUTOUTS
100
AcDbCircle
10
2.0514810636682181
20
47.99999999986143
30
0
40
18.999999999997708
210
-0
220
0
230
1
100
AcDbArc
50
275.72481045222247
51
290.32119455444581
0
ARC
5
12A
100
AcDbEntity
8
CUTOUTS
100
AcDbCircle
10
8.9971323994143013
20
29.244789323300964
30
0
40
1.0000000000002736
210
0
220
-0
230
1
100
AcDbArc
50
33.234930511164784
51
110.32119455442808
0
LINE
5
12B
100
AcDbEntity
8
CUTOUTS
100
AcDbLine
10
9.8335627341421734
20
29.792862580400381
30
0
11
10.330868913788249
21
29.0339093402708
31
0
0
ARC
5
12C
100
AcDbEntity
8
CUTOUTS
100
AcDbCircle
10
9.4944385790603238
20
28.485836083171613
30
0
40
1.0000000000001936
210
-0
220
0
230
1
100
AcDbArc
50
-64.532958975039648
51
33.234930511151994
0
ARC
5
12D
100
AcDbEntity
8
CUTOUTS
100
AcDbCircle
10
9.4944385790586807
20
-28.48583608341665
30
0
40
1.0000000000002045
210
-0
220
0
230
1
100
AcDbArc
50
-33.234930511155618
51
64.532958975037232
0
LINE
5
12E
100
AcDbEntity
8
CUTOUTS
100
AcDbLine
10
10.330868913786585
20
-29.033909340515898
30
0
11
9.8335627341404539
21
-29.792862580645423
31
0
0
ARC
5
12F
100
AcDbEntity
8
CUTOUTS
100
AcDbCircle
10
8.9971323994126244
20
-29.244789323545998
30
0
40
1.0000000000002316
210
0
220
0
230
1
100
AcDbArc
50
249.67880544556874
51
326.76506948883349
0
ARC
5
130
100
AcDbEntity
8
CUTOUTS
100
AcDbCircle
10
2.0514810636654399
20
-48.00000000010602
30
0
40
18.999999999997708
210
0
220
-0
230
1
100
AcDbArc
50
69.678805445550807
51
84.275189547774033
0
ARC
5
131
100
AcDbEntity
8
CUTOUTS
100
AcDbCircle
10
4.051481063666051
20
-28.050000000108462
30
0
40
1.0499999999998977
210
0
220
-0
230
1
100
AcDbArc
50
89.999999999994344
51
264.27518954777469
0
LINE
5
132
100
AcDbEntity
8
CUTOUTS
100
AcDbLine
10
4.0514810636661549
20
-27.000000000108564
30
0
11
7.3444794786950389
21
-27.000000000108386
31
0
0
ARC
5
133
100
AcDbEntity
8
CUTOUTS
100
AcDbCircle
10
7.3444794786950505
20
-33.000000000108415
30
0
40
6.0000000000000231
210
0
220
-0
230
1
100
AcDbArc
50
64.532958975050008
51
90.000000000000128
0
ARC
5
134
100
AcDbEntity
8
PERIMETER
100
AcDbCircle
10
24.045405437893145
20
43.893807344351671
30
0
40
2.0000000000000098
210
0
220
-0
230
1
100
AcDbArc
50
38.872466304413912
51
128.87246630441388
0
LINE
5
135
100
AcDbEntity
8
PERIMETER
100
AcDbLine
10
29.368029075284539
20
40.477716374464514
30
0
11
25.602495095071195
21
45.148985339501834
31
0
0
ARC
5
136
100
AcDbEntity
8
PERIMETER
100
AcDbCircle
10
27.810939418106496
20
39.222538379314358
30
0
40
1.999999999998644
210
-0
220
0
230
1
100
AcDbArc
50
-51.127533695594906
51
38.872466304413784
0
ARC
5
137
100
AcDbEntity
8
PERIMETER
100
AcDbCircle
10
68.016096405220608
20
-0.45546603990790802
30
0
40
54.500504637751988
210
0
220
0
230
1
100
AcDbArc
50
135.61631631451999
51
167.17202045288155
0
ARC
5
138
100
AcDbEntity
8
PERIMETER
100
AcDbCircle
10
21.701154577811085
20
10.090817872673233
30
0
40
7.0000000000000151
210
0
220
0
230
1
100
AcDbArc
50
167.17202045288144
51
174.33182981579435
0
ARC
5
139
100
AcDbEntity
8
PERIMETER
100
AcDbCircle
10
11.750048657636505
20
11.078487334318559
30
0
40
3.0000000000000293
210
-0
220
0
230
1
100
AcDbArc
50
321.05657307805654
51
354.33182981579426
0
ARC
5
13A
100
AcDbEntity
8
PERIMETER
100
AcDbCircle
10
15.249999999999433
20
8.2499999998777405
30
0
40
1.4999999999999922
210
0
220
0
230
1
100
AcDbArc
50
141.05657307805683
51
218.94234442527423
0
ARC
5
13B
100
AcDbEntity
8
PERIMETER
100
AcDbCircle
10
9.999999999999396
20
2.999999999877867
30
0
40
5.9351081739375742
210
-0
220
0
230
1
100
AcDbArc
50
-29.84619846391011
51
46.528302438546817
0
ARC
5
13C
100
AcDbEntity
8
PERIMETER
100
AcDbCircle
10
17.749995219279384
20
-1.4467664861323195
30
0
40
3.0000000000000004
210
0
220
0
230
1
100
AcDbArc
50
150.15380153608999
51
180
0
LINE
5
13D
100
AcDbEntity
8
PERIMETER
100
AcDbLine
10
14.750044356234188
20
-10.303307324446243
30
0
11
14.749995219279384
21
-1.4467664861323148
31
0
0
ARC
5
13E
100
AcDbEntity
8
PERIMETER
100
AcDbCircle
10
21.750044356126459
20
-10.303268487761594
30
0
40
7.0000000000000053
210
0
220
0
230
1
100
AcDbArc
50
180.00031788252758
51
193.09093853490796
0
ARC
5
13F
100
AcDbEntity
8
PERIMETER
100
AcDbCircle
10
68.016096405220381
20
0.45546603966331478
30
0
40
54.500504637751717
210
0
220
0
230
1
100
AcDbArc
50
193.09093853490802
51
224.38368368367441
0
ARC
5
140
100
AcDbEntity
8
PERIMETER
100
AcDbCircle
10
27.810939417960149
20
-39.22253837819629
30
0
40
2.0000000000000107
210
-0
220
0
230
1
100
AcDbArc
50
-38.872466285906476
51
51.127533716697599
0
LINE
5
141
100
AcDbEntity
8
PERIMETER
100
AcDbLine
10
25.602495096839188
20
-45.148985339097088
30
0
11
29.368029075543642
21
-40.477716372843489
31
0
0
ARC
5
142
100
AcDbEntity
8
PERIMETER
100
AcDbCircle
10
24.045405439255706
20
-43.893807344449897
30
0
40
1.9999999999999996
210
0
220
0
230
1
100
AcDbArc
50
231.12753371409312
51
321.12753371409354
0
LINE
5
143
100
AcDbEntity
8
PERIMETER
100
AcDbLine
10
10.224783063986703
20
-35.321827553330678
30
0
11
22.790227444608504
21
-45.450897002033372
31
0
0
ARC
5
144
100
AcDbEntity
8
PERIMETER
100
AcDbCircle
10
0.81094810413272356
20
-46.999999985206827
30
0
40
15.000000000000037
210
0
220
-0
230
1
100
AcDbArc
50
51.127533714093438
51
89.999999999999673
0
LINE
5
145
100
AcDbEntity
8
PERIMETER
100
AcDbLine
10
-0.8109481041348654
20
-31.99999998520677
30
0
11
0.81094810413280038
21
-31.999999985206792
31
0
0
ARC
5
146
100
AcDbEntity
8
PERIMETER
100
AcDbCircle
10
-0.81094810413525065
20
-46.999999985206735
30
0
40
14.999999999999964
210
0
220
-0
230
1
100
AcDbArc
50
89.999999999998522
51
128.87246628590501
0
LINE
5
147
100
AcDbEntity
8
PERIMETER
100
AcDbLine
10
-22.790227444610967
20
-45.450897002032704
30
0
11
-10.224783063988864
21
-35.321827553330387
31
0
0
ARC
5
148
100
AcDbEntity
8
PERIMETER
100
AcDbCircle
10
-24.045405439258122
20
-43.893807344449193
30
0
40
1.9999999999999998
210
0
220
0
230
1
100
AcDbArc
50
218.87246628590489
51
308.8724662859052
0
LINE
5
149
100
AcDbEntity
8
PERIMETER
100
AcDbLine
10
-29.368029075545966
20
-40.477716372842629
30
0
11
-25.60249509684164
21
-45.148985339096342
31
0
0
ARC
5
14A
100
AcDbEntity
8
PERIMETER
100
AcDbCircle
10
-27.81093941796243
20
-39.22253837819548
30
0
40
1.9999999990283515
210
0
220
0
230
1
100
AcDbArc
50
128.87246633215602
51
218.87246628590441
0
ARC
5
14B
100
AcDbEntity
8
PERIMETER
100
AcDbCircle
10
-68.016096405221418
20
0.45546603966326371
30
0
40
54.500504637751618
210
-0
220
0
230
1
100
AcDbArc
50
315.61631631451985
51
346.90906146509195
0
ARC
5
14C
100
AcDbEntity
8
PERIMETER
100
AcDbCircle
10
-21.750044356127596
20
-10.303268487761608
30
0
40
7.0000000000000098
210
-0
220
0
230
1
100
AcDbArc
50
346.90906146509178
51
359.99968211747239
0
LINE
5
14D
100
AcDbEntity
8
PERIMETER
100
AcDbLine
10
-14.749995219280565
20
-1.4467664861318872
30
0
11
-14.750044356235328
21
-10.303307324446219
31
0
0
ARC
5
14E
100
AcDbEntity
8
PERIMETER
100
AcDbCircle
10
-17.749995219280553
20
-1.446766486131801
30
0
40
2.9999999999999871
210
-0
220
0
230
1
100
AcDbArc
50
0
51
29.846198463908504
0
ARC
5
14F
100
AcDbEntity
8
PERIMETER
100
AcDbCircle
10
-10.000000000000446
20
2.9999999998781584
30
0
40
5.9351081739375626
210
0
220
0
230
1
100
AcDbArc
50
133.47169756145144
51
209.84619846390839
0
ARC
5
150
100
AcDbEntity
8
PERIMETER
100
AcDbCircle
10
-15.250000000000332
20
8.2499999998781828
30
0
40
1.5000000000000049
210
-0
220
0
230
1
100
AcDbArc
50
-38.942344425275657
51
38.943426921941501
0
ARC
5
151
100
AcDbEntity
8
PERIMETER
100
AcDbCircle
10
-11.750048657637318
20
11.078487334318901
30
0
40
3.0000000000000107
210
0
220
0
230
1
100
AcDbArc
50
185.66817018422262
51
218.94342692194172
0
ARC
5
152
100
AcDbEntity
8
PERIMETER
100
AcDbCircle
10
-21.7011545778116
20
10.090817872670621
30
0
40
7.0000000000000027
210
0
220
-0
230
1
100
AcDbArc
50
5.6681701842226468
51
12.827979547114968
0
ARC
5
153
100
AcDbEntity
8
PERIMETER
100
AcDbCircle
10
-68.016096405221518
20
-0.45546603990779477
30
0
40
54.500504637751746
210
0
220
-0
230
1
100
AcDbArc
50
12.82797954711511
51
44.383683685480044
0
ARC
5
154
100
AcDbEntity
8
PERIMETER
100
AcDbCircle
10
-27.810939418106489
20
39.222538379315168
30
0
40
1.9999999999999978
210
0
220
0
230
1
100
AcDbArc
50
141.12753369558448
51
231.12753369558459
0
LINE
5
155
100
AcDbEntity
8
PERIMETER
100
AcDbLine
10
-25.602495095071017
20
45.14898533950258
30
0
11
-29.368029075284493
21
40.477716374465366
31
0
0
ARC
5
156
100
AcDbEntity
8
PERIMETER
100
AcDbCircle
10
-24.045405437893002
20
43.893807344352368
30
0
40
2.0000000000000075
210
0
220
-0
230
1
100
AcDbArc
50
51.127533695584553
51
141.12753369558442
0
LINE
5
157
100
AcDbEntity
8
PERIMETER
100
AcDbLine
10
-10.499505510913432
20
35.543282727538283
30
0
11
-22.790227442742797
21
45.450897001530386
31
0
0
ARC
5
158
100
AcDbEntity
8
PERIMETER
100
AcDbCircle
10
-0.45808154971176795
20
47.999999984962436
30
0
40
16.000000000000114
210
0
220
0
230
1
100
AcDbArc
50
231.12753369558448
51
269.99999999999858
0
LINE
5
159
100
AcDbEntity
8
PERIMETER
100
AcDbLine
10
0.45808154971197168
20
31.999999984962315
30
0
11
-0.45808154971217152
21
31.999999984962322
31
0
0
ARC
5
15A
100
AcDbEntity
8
PERIMETER
100
AcDbCircle
10
0.45808154971200943
20
47.999999984962471
30
0
40
16.000000000000156
210
0
220
0
230
1
100
AcDbArc
50
269.99999999999983
51
308.87246630441382
0
LINE
5
15B
100
AcDbEntity
8
PERIMETER
100
AcDbLine
10
22.790227442742985
20
45.450897001529718
30
0
11
10.499505510913336
21
35.543282727537992
31
0
0
ENDSEC
0
SECTION
2
OBJECTS
0
DICTIONARY
5
C
100
AcDbDictionary
3
ACAD_GROUP
350
D
3
ACAD_MLINESTYLE
350
17
0
DICTIONARY
5
D
100
AcDbDictionary
0
DICTIONARY
5
1A
330
C
100
AcDbDictionary
0
DICTIONARY
5
17
100
AcDbDictionary
0
ENDSEC
0
EOF
