0
SECTION
2
HEADER
9
$INSUNITS
70
4
9
$ACADVER
1
AC1014
9
$HANDSEED
5
FFFF
0
ENDSEC
0
SECTION
2
TABLES
0
TABLE
2
VPORT
5
8
100
AcDbSymbolTable
0
ENDTAB
0
TABLE
2
LTYPE
5
5
100
AcDbSymbolTable
70
2
0
LTYPE
5
14
100
AcDbSymbolTableRecord
100
AcDbLinetypeTableRecord
2
BYBLOCK
70
0
0
LTYPE
5
15
100
AcDbSymbolTableRecord
100
AcDbLinetypeTableRecord
2
BYLAYER
70
0
0
ENDTAB
0
TABLE
2
LAYER
5
2
100
AcDbSymbolTable
70
3
0
LAYER
5
50
100
AcDbSymbolTableRecord
100
AcDbLayerTableRecord
2
0
70
0
6
CONTINUOUS
0
LAYER
5
51
100
AcDbSymbolTableRecord
100
AcDbLayerTableRecord
2
CUTOUTS
70
0
62
1
6
CONTINUOUS
0
LAYER
5
52
100
AcDbSymbolTableRecord
100
AcDbLayerTableRecord
2
PERIMETER
70
0
62
5
6
CONTINUOUS
0
ENDTAB
0
TABLE
2
STYLE
5
3
100
AcDbSymbolTable
70
1
0
STYLE
5
11
100
AcDbSymbolTableRecord
100
AcDbTextStyleTableRecord
2
STANDARD
70
0
0
ENDTAB
0
TABLE
2
VIEW
5
6
100
AcDbSymbolTable
0
ENDTAB
0
TABLE
2
UCS
5
7
100
AcDbSymbolTable
0
ENDTAB
0
TABLE
2
APPID
5
9
100
AcDbSymbolTable
70
1
0
APPID
5
12
100
AcDbSymbolTableRecord
100
AcDbRegAppTableRecord
2
ACAD
70
0
0
ENDTAB
0
TABLE
2
DIMSTYLE
5
A
100
AcDbSymbolTable
0
ENDTAB
0
TABLE
2
BLOCK_RECORD
5
1
100
AcDbSymbolTable
70
2
0
BLOCK_RECORD
5
1F
100
AcDbSymbolTableRecord
100
AcDbBlockTableRecord
2
*MODEL_SPACE
0
BLOCK_RECORD
5
1B
100
AcDbSymbolTableRecord
100
AcDbBlockTableRecord
2
*PAPER_SPACE
0
ENDTAB
0
ENDSEC
0
SECTION
2
BLOCKS
0
BLOCK
5
20
100
AcDbEntity
100
AcDbBlockBegin
2
*MODEL_SPACE
0
ENDBLK
5
21
100
AcDbEntity
100
AcDbBlockEnd
0
BLOCK
5
1C
100
AcDbEntity
100
AcDbBlockBegin
2
*PAPER_SPACE
0
ENDBLK
5
1D
100
AcDbEntity
100
AcDbBlockEnd
0
ENDSEC
0
SECTION
2
ENTITIES
0
CIRCLE
5
100
100
AcDbEntity
8
CUTOUTS
100
AcDbCircle
10
-15.250000000000039
20
-22.250000000000011
30
0
40
1.4999999999999991
210
0
220
0
230
1
0
CIRCLE
5
101
100
AcDbEntity
8
CUTOUTS
100
AcDbCircle
10
15.249999999999984
20
-22.250000000000064
30
-1.1102230246251565e-15
40
1.4999999999999991
210
0
220
0
230
1
0
CIRCLE
5
102
100
AcDbEntity
8
CUTOUTS
100
AcDbCircle
10
-23.592537945481808
20
-39.675405871848731
30
0
40
1.4750000000000085
210
0
220
0
230
1
0
CIRCLE
5
103
100
AcDbEntity
8
CUTOUTS
100
AcDbCircle
10
-14.250000000000185
20
-32.144337903979398
30
0
40
1.4750000000000085
210
0
220
0
230
1
0
CIRCLE
5
104
100
AcDbEntity
8
CUTOUTS
100
AcDbCircle
10
-14.250000000000185
20
32.144337903979391
30
0
40
1.4750000000000085
210
0
220
0
230
1
0
CIRCLE
5
105
100
AcDbEntity
8
CUTOUTS
100
AcDbCircle
10
23.592537945481702
20
-39.675405871848739
30
0
40
1.4750000000000085
210
0
220
0
230
1
0
CIRCLE
5
106
100
AcDbEntity
8
CUTOUTS
100
AcDbCircle
10
9.9999999999999645
20
2.9999999999999916
30
0
40
1.4999999999999991
210
0
220
0
230
1
0
CIRCLE
5
107
100
AcDbEntity
8
CUTOUTS
100
AcDbCircle
10
9.9999999999999645
20
-17.000000000000007
30
0
40
1.4999999999999991
210
0
220
0
230
1
0
CIRCLE
5
108
100
AcDbEntity
8
CUTOUTS
100
AcDbCircle
10
-23.592537945481808
20
39.675405871848717
30
0
40
1.4750000000000085
210
0
220
0
230
1
0
CIRCLE
5
109
100
AcDbEntity
8
CUTOUTS
100
AcDbCircle
10
-10.000000000000036
20
2.9999999999999916
30
0
40
1.4999999999999991
210
0
220
0
230
1
0
CIRCLE
5
10A
100
AcDbEntity
8
CUTOUTS
100
AcDbCircle
10
23.592537945481702
20
39.675405871848717
30
0
40
1.4750000000000085
210
0
220
0
230
1
0
CIRCLE
5
10B
100
AcDbEntity
8
CUTOUTS
100
AcDbCircle
10
-15.250000000000039
20
8.2499999999999929
30
0
40
1.4999999999999991
210
0
220
0
230
1
0
CIRCLE
5
10C
100
AcDbEntity
8
CUTOUTS
100
AcDbCircle
10
15.24999999999995
20
8.2499999999999929
30
0
40
1.4999999999999991
210
0
220
0
230
1
0
CIRCLE
5
10D
100
AcDbEntity
8
CUTOUTS
100
AcDbCircle
10
-10.000000000000036
20
-17.000000000000007
30
0
40
1.4999999999999991
210
0
220
0
230
1
0
CIRCLE
5
10E
100
AcDbEntity
8
CUTOUTS
100
AcDbCircle
10
14.250000000000114
20
-32.144337903979398
30
0
40
1.4750000000000085
210
0
220
0
230
1
0
CIRCLE
5
10F
100
AcDbEntity
8
CUTOUTS
100
AcDbCircle
10
14.250000000000114
20
32.144337903979391
30
0
40
1.4750000000000085
210
0
220
0
230
1
0
ARC
5
110
100
AcDbEntity
8
CUTOUTS
100
AcDbCircle
10
-7.5888821662958241
20
-11.492197027659142
30
0
40
0.8999999999999313
210
0
220
0
230
1
100
AcDbArc
50
180.28379867806302
51
328.0065006541833
0
LINE
5
111
100
AcDbEntity
8
CUTOUTS
100
AcDbLine
10
-8.4888711258375658
20
-11.496654908641041
30
0
11
-8.4888711258378162
21
-2.503656891391536
31
0
0
ARC
5
112
100
AcDbEntity
8
CUTOUTS
100
AcDbCircle
10
-7.5888821662959671
20
-2.5081147723732973
30
0
40
0.90000000000003832
210
0
220
-0
230
1
100
AcDbArc
50
31.993499345821792
51
179.71620132194468
0
LINE
5
113
100
AcDbEntity
8
CUTOUTS
100
AcDbLine
10
-6.825584773532217
20
-2.0312740335514863
30
0
11
-4.0524532142517868
21
-6.4703328568811163
31
0
0
ARC
5
114
100
AcDbEntity
8
CUTOUTS
100
AcDbCircle
10
-4.9005614284337708
20
-7.0001559000163613
30
0
40
1.0000000000000235
210
-0
220
0
230
1
100
AcDbArc
50
-31.993499345819789
51
31.993499345815717
0
LINE
5
115
100
AcDbEntity
8
CUTOUTS
100
AcDbLine
10
-4.0524532142518241
20
-7.5299789431516668
30
0
11
-6.8255847735321229
21
-11.969037766480827
31
0
0
LINE
5
116
100
AcDbEntity
8
CUTOUTS
100
AcDbLine
10
0.84810821418369042
20
-9.9503506143764291
30
0
11
3.9177355096494026
21
-14.864021617350362
31
0
0
ARC
5
117
100
AcDbEntity
8
CUTOUTS
100
AcDbCircle
10
3.0696272954676989
20
-15.393844660485696
30
0
40
0.99999999999983213
210
-0
220
0
230
1
100
AcDbArc
50
-74.549108383309942
51
31.993499345828628
0
LINE
5
118
100
AcDbEntity
8
CUTOUTS
100
AcDbLine
10
3.3360396429547903
20
-16.35770381052064
30
0
11
0.26641234748911502
21
-17.206154140287683
31
0
0
ARC
5
119
100
AcDbEntity
8
CUTOUTS
100
AcDbCircle
10
1.8830423331728241e-12
20
-16.242294990254585
30
0
40
0.9999999999980913
210
0
220
0
230
1
100
AcDbArc
50
254.5491083832697
51
285.45089161672593
0
LINE
5
11A
100
AcDbEntity
8
CUTOUTS
100
AcDbLine
10
-0.26641234748542159
20
-17.206154140287666
30
0
11
-3.3360396429510963
21
-16.357703810520675
31
0
0
ARC
5
11B
100
AcDbEntity
8
CUTOUTS
100
AcDbCircle
10
-3.0696272954635253
20
-15.393844660485554
30
0
40
1.0000000000001339
210
0
220
0
230
1
100
AcDbArc
50
148.00650065419342
51
254.54910838328612
0
LINE
5
11C
100
AcDbEntity
8
CUTOUTS
100
AcDbLine
10
-3.9177355096456874
20
-14.864021617350385
30
0
11
-0.8481082141800711
21
-9.950350614376438
31
0
0
ARC
5
11D
100
AcDbEntity
8
CUTOUTS
100
AcDbCircle
10
1.8118839761882555e-12
20
-10.48017365751174
30
0
40
0.99999999999996803
210
0
220
-0
230
1
100
AcDbArc
50
31.993499345822119
51
148.00650065417844
0
LINE
5
11E
100
AcDbEntity
8
CUTOUTS
100
AcDbLine
10
4.0524532142554994
20
-6.470332856881055
30
0
11
6.8255847735357502
21
-2.0312740335518238
31
0
0
ARC
5
11F
100
AcDbEntity
8
CUTOUTS
100
AcDbCircle
10
4.9005614284374497
20
-7.0001559000163613
30
0
40
1.0000000000000269
210
0
220
0
230
1
100
AcDbArc
50
148.00650065418029
51
211.99349934581784
0
LINE
5
120
100
AcDbEntity
8
CUTOUTS
100
AcDbLine
10
6.8255847735358444
20
-11.96903776648095
30
0
11
4.0524532142554817
21
-7.5299789431516402
31
0
0
ARC
5
121
100
AcDbEntity
8
CUTOUTS
100
AcDbCircle
10
7.5888821662995909
20
-11.492197027659142
30
0
40
0.90000000000003422
210
0
220
0
230
1
100
AcDbArc
50
211.99349934582179
51
359.71560233906257
0
LINE
5
122
100
AcDbEntity
8
CUTOUTS
100
AcDbLine
10
8.4888711258414737
20
-2.5036568913916817
30
0
11
8.4888710791885718
21
-11.496664317326363
31
0
0
ARC
5
123
100
AcDbEntity
8
CUTOUTS
100
AcDbCircle
10
7.5888821662996619
20
-2.5081147723733017
30
0
40
0.89999999999999869
210
0
220
-0
230
1
100
AcDbArc
50
0.28379867804632247
51
148.00650065420169
0
LINE
5
124
100
AcDbEntity
8
CUTOUTS
100
AcDbLine
10
-3.3360396429511145
20
2.3573920104879198
30
0
11
-0.26641234748542852
21
3.205842340254923
31
0
0
ARC
5
125
100
AcDbEntity
8
CUTOUTS
100
AcDbCircle
10
1.864949167318386e-12
20
2.2419831902218652
30
0
40
0.99999999999806932
210
0
220
-0
230
1
100
AcDbArc
50
74.549108383273563
51
105.45089161673
0
LINE
5
126
100
AcDbEntity
8
CUTOUTS
100
AcDbLine
10
0.26641234748909837
20
3.2058423402549394
30
0
11
3.3360396429548089
21
2.3573920104879598
31
0
0
ARC
5
127
100
AcDbEntity
8
CUTOUTS
100
AcDbCircle
10
3.0696272954672743
20
1.3935328604528263
30
0
40
1.0000000000001343
210
-0
220
0
230
1
100
AcDbArc
50
-31.993499345806509
51
74.54910838328837
0
LINE
5
128
100
AcDbEntity
8
CUTOUTS
100
AcDbLine
10
3.9177355096494382
20
0.86370981731765895
30
0
11
0.84810821418376092
21
-4.0499611856562954
31
0
0
ARC
5
129
100
AcDbEntity
8
CUTOUTS
100
AcDbCircle
10
1.8831464165813827e-12
20
-3.5201381425209863
30
0
40
0.99999999999996703
210
0
220
0
230
1
100
AcDbArc
50
211.99349934582207
51
328.00650065417796
0
LINE
5
12A
100
AcDbEntity
8
CUTOUTS
100
AcDbLine
10
-0.84810821417999449
20
-4.0499611856562963
30
0
11
-3.9177355096458832
21
0.86370981731763108
31
0
0
ARC
5
12B
100
AcDbEntity
8
CUTOUTS
100
AcDbCircle
10
-3.0696272954638815
20
1.3935328604528288
30
0
40
1.0000000000000131
210
0
220
0
230
1
100
AcDbArc
50
105.45089161669561
51
211.99349934581286
0
ARC
5
12C
100
AcDbEntity
8
CUTOUTS
100
AcDbCircle
10
-8.997132399414129
20
29.244789323423426
30
0
40
1.0000000000002531
210
0
220
-0
230
1
100
AcDbArc
50
69.678805445570489
51
146.76506948883465
0
ARC
5
12D
100
AcDbEntity
8
CUTOUTS
100
AcDbCircle
10
-2.0514810636674774
20
47.999999999983729
30
0
40
18.999999999997769
210
0
220
0
230
1
100
AcDbArc
50
249.67880544555246
51
264.27518954777565
0
ARC
5
12E
100
AcDbEntity
8
CUTOUTS
100
AcDbCircle
10
-4.0514810636675227
20
28.049999999986063
30
0
40
1.0499999999999243
210
0
220
0
230
1
100
AcDbArc
50
-90.000000000004832
51
84.275189547776407
0
LINE
5
12F
100
AcDbEntity
8
CUTOUTS
100
AcDbLine
10
-4.0514810636676115
20
26.999999999986137
30
0
11
-7.3444794786964884
21
26.999999999985885
31
0
0
ARC
5
130
100
AcDbEntity
8
CUTOUTS
100
AcDbCircle
10
-7.3444794786966527
20
32.999999999986017
30
0
40
6.0000000000001341
210
0
220
0
230
1
100
AcDbArc
50
244.53295897505186
51
270.00000000000153
0
ARC
5
131
100
AcDbEntity
8
CUTOUTS
100
AcDbCircle
10
-9.4944385790601942
20
28.485836083294082
30
0
40
1.0000000000001827
210
0
220
0
230
1
100
AcDbArc
50
146.76506948884571
51
244.53295897503989
0
LINE
5
132
100
AcDbEntity
8
CUTOUTS
100
AcDbLine
10
-10.330868913788091
20
29.033909340393297
30
0
11
-9.833562734141978
21
29.79286258052284
31
0
0
ARC
5
133
100
AcDbEntity
8
CUTOUTS
100
AcDbCircle
10
-2.0514810636674419
20
-47.99999999998407
30
0
40
18.999999999997861
210
0
220
0
230
1
100
AcDbArc
50
95.72481045222429
51
110.32119455444736
0
ARC
5
134
100
AcDbEntity
8
CUTOUTS
100
AcDbCircle
10
-4.0514810636675049
20
-28.049999999986305
30
0
40
1.0499999999999206
210
-0
220
0
230
1
100
AcDbArc
50
-84.275189547775213
51
90.000000000005002
0
LINE
5
135
100
AcDbEntity
8
CUTOUTS
100
AcDbLine
10
-7.344479478696484
20
-26.99999999998613
30
0
11
-4.0514810636675955
21
-26.999999999986386
31
0
0
ARC
5
136
100
AcDbEntity
8
CUTOUTS
100
AcDbCircle
10
-7.3444794786966483
20
-32.999999999986294
30
0
40
6.0000000000001652
210
0
220
-0
230
1
100
AcDbArc
50
89.999999999998423
51
115.46704102494799
0
ARC
5
137
100
AcDbEntity
8
CUTOUTS
100
AcDbCircle
10
-9.4944385790601835
20
-28.485836083294327
30
0
40
1.0000000000001916
210
0
220
0
230
1
100
AcDbArc
50
115.46704102496066
51
213.23493051115344
0
LINE
5
138
100
AcDbEntity
8
CUTOUTS
100
AcDbLine
10
-9.833562734141978
20
-29.792862580523089
30
0
11
-10.330868913788098
21
-29.033909340393535
31
0
0
ARC
5
139
100
AcDbEntity
8
CUTOUTS
100
AcDbCircle
10
-8.9971323994141486
20
-29.244789323423703
30
0
40
1.0000000000002203
210
0
220
0
230
1
100
AcDbArc
50
213.23493051116458
51
290.32119455443342
0
ARC
5
13A
100
AcDbEntity
8
CUTOUTS
100
AcDbCircle
10
7.3444794786966483
20
-32.999999999986294
30
0
40
6.0000000000001661
210
0
220
-0
230
1
100
AcDbArc
50
64.532958975051955
51
90.000000000001563
0
LINE
5
13B
100
AcDbEntity
8
CUTOUTS
100
AcDbLine
10
4.0514810636675946
20
-26.999999999986386
30
0
11
7.3444794786964813
21
-26.99999999998613
31
0
0
ARC
5
13C
100
AcDbEntity
8
CUTOUTS
100
AcDbCircle
10
4.0514810636675058
20
-28.049999999986305
30
0
40
1.0499999999999199
210
0
220
-0
230
1
100
AcDbArc
50
89.999999999995154
51
264.27518954777616
0
ARC
5
13D
100
AcDbEntity
8
CUTOUTS
100
AcDbCircle
10
2.0514810636674419
20
-47.99999999998407
30
0
40
18.999999999997865
210
0
220
-0
230
1
100
AcDbArc
50
69.678805445552584
51
84.275189547775668
0
ARC
5
13E
100
AcDbEntity
8
CUTOUTS
100
AcDbCircle
10
8.9971323994141486
20
-29.244789323423703
30
0
40
1.0000000000002358
210
0
220
0
230
1
100
AcDbArc
50
249.67880544556724
51
326.76506948883525
0
LINE
5
13F
100
AcDbEntity
8
CUTOUTS
100
AcDbLine
10
10.330868913788098
20
-29.033909340393535
30
0
11
9.8335627341419887
21
-29.792862580523099
31
0
0
ARC
5
140
100
AcDbEntity
8
CUTOUTS
100
AcDbCircle
10
9.4944385790601817
20
-28.485836083294327
30
0
40
1.0000000000001938
210
-0
220
0
230
1
100
AcDbArc
50
-33.23493051115333
51
64.53295897503908
0
LINE
5
141
100
AcDbEntity
8
CUTOUTS
100
AcDbLine
10
9.833562734141978
20
29.79286258052284
30
0
11
10.330868913788091
21
29.03390934039329
31
0
0
ARC
5
142
100
AcDbEntity
8
CUTOUTS
100
AcDbCircle
10
9.4944385790601942
20
28.485836083294075
30
0
40
1.0000000000001734
210
-0
220
0
230
1
100
AcDbArc
50
-64.532958975039747
51
33.23493051115436
0
ARC
5
143
100
AcDbEntity
8
CUTOUTS
100
AcDbCircle
10
7.3444794786966554
20
32.999999999986066
30
0
40
6.0000000000001785
210
0
220
0
230
1
100
AcDbArc
50
269.99999999999835
51
295.46704102494783
0
LINE
5
144
100
AcDbEntity
8
CUTOUTS
100
AcDbLine
10
7.3444794786964867
20
26.999999999985889
30
0
11
4.0514810636676133
21
26.999999999986152
31
0
0
ARC
5
145
100
AcDbEntity
8
CUTOUTS
100
AcDbCircle
10
4.0514810636675227
20
28.049999999986067
30
0
40
1.0499999999999152
210
0
220
0
230
1
100
AcDbArc
50
95.724810452224375
51
270.00000000000495
0
ARC
5
146
100
AcDbEntity
8
CUTOUTS
100
AcDbCircle
10
2.0514810636674774
20
47.999999999983736
30
0
40
18.999999999997776
210
-0
220
0
230
1
100
AcDbArc
50
275.72481045222429
51
290.32119455444752
0
ARC
5
147
100
AcDbEntity
8
CUTOUTS
100
AcDbCircle
10
8.9971323994141272
20
29.244789323423426
30
0
40
1.0000000000002534
210
0
220
-0
230
1
100
AcDbArc
50
33.234930511165288
51
110.32119455442933
0
ARC
5
148
100
AcDbEntity
8
CUTOUTS
100
AcDbCircle
10
1.9519628968733826e-12
20
20.351575794532181
30
0
40
1.000000000000494
210
0
220
-0
230
1
100
AcDbArc
50
74.035553580946285
51
105.96444641905744
0
LINE
5
149
100
AcDbEntity
8
CUTOUTS
100
AcDbLine
10
-4.3044241456962986
20
20.160306713641546
30
0
11
-0.27504081390301083
21
21.313008345826074
31
0
0
ARC
5
14A
100
AcDbEntity
8
CUTOUTS
100
AcDbCircle
10
-4.0293833317914727
20
19.198874162348204
30
0
40
0.99999999999992673
210
0
220
0
230
1
100
AcDbArc
50
105.96444641905856
51
211.9934993458223
0
LINE
5
14B
100
AcDbEntity
8
CUTOUTS
100
AcDbLine
10
-0.84810821418006554
20
12.21906154994349
30
0
11
-4.8774915459733146
21
18.669051119212913
31
0
0
ARC
5
14C
100
AcDbEntity
8
CUTOUTS
100
AcDbCircle
10
1.8822443603738748e-12
20
12.748884593078651
30
0
40
0.9999999999999476
210
0
220
0
230
1
100
AcDbArc
50
211.99349934581275
51
328.00650065418409
0
LINE
5
14D
100
AcDbEntity
8
CUTOUTS
100
AcDbLine
10
4.8774915459769588
20
18.669051119213023
30
0
11
0.84810821418380089
21
12.219061549943444
31
0
0
ARC
5
14E
100
AcDbEntity
8
CUTOUTS
100
AcDbCircle
10
4.0293833317954331
20
19.198874162348332
30
0
40
0.99999999999966793
210
-0
220
0
230
1
100
AcDbArc
50
-31.993499345832717
51
74.03555358095646
0
LINE
5
14F
100
AcDbEntity
8
CUTOUTS
100
AcDbLine
10
0.27504081390685264
20
21.313008345826091
30
0
11
4.3044241456999375
21
20.160306713641496
31
0
0
ARC
5
150
100
AcDbEntity
8
PERIMETER
100
AcDbCircle
10
-68.01609640522058
20
0.4554660397851551
30
0
40
54.500504637751348
210
-0
220
0
230
1
100
AcDbArc
50
337.31165226867267
51
346.66531760761836
0
ARC
5
151
100
AcDbEntity
8
PERIMETER
100
AcDbCircle
10
-15.250000000000039
20
-22.250000000000124
30
0
40
2.999999999999913
210
0
220
0
230
1
100
AcDbArc
50
145.86076639992541
51
167.57442064881363
0
ARC
5
152
100
AcDbEntity
8
PERIMETER
100
AcDbCircle
10
-68.01609640522058
20
0.4554660397851551
30
0
40
54.500504637751348
210
-0
220
0
230
1
100
AcDbArc
50
315.61631631451979
51
336.12353478006833
0
ARC
5
153
100
AcDbEntity
8
PERIMETER
100
AcDbCircle
10
-27.810939421738816
20
-39.222538374931482
30
0
40
1.9999999942117963
210
0
220
0
230
1
100
AcDbArc
50
128.87246630440518
51
218.87246630441399
0
LINE
5
154
100
AcDbEntity
8
PERIMETER
100
AcDbLine
10
-29.368029074410479
20
-40.477716366449023
30
0
11
-25.602495093061105
21
-45.148985342118557
31
0
0
ARC
5
155
100
AcDbEntity
8
PERIMETER
100
AcDbCircle
10
-24.045405435883055
20
-43.893807346968373
30
0
40
2.0000000000000213
210
0
220
0
230
1
100
AcDbArc
50
218.87246630441436
51
308.87246628591282
0
LINE
5
156
100
AcDbEntity
8
PERIMETER
100
AcDbLine
10
-22.790227441235679
20
-45.450897004551734
30
0
11
-10.116836810690643
21
-35.234811527676186
31
0
0
ARC
5
157
100
AcDbEntity
8
PERIMETER
100
AcDbCircle
10
-1.3305908481590469
20
-46.13443913075961
30
0
40
14.000000000000036
210
0
220
0
230
1
100
AcDbArc
50
92.951588654847683
51
128.87246628591299
0
LINE
5
158
100
AcDbEntity
8
PERIMETER
100
AcDbLine
10
-2.0514810636673522
20
-32.153011546382345
30
0
11
2.0514810636673539
21
-32.153011546382352
31
0
0
ARC
5
159
100
AcDbEntity
8
PERIMETER
100
AcDbCircle
10
1.3305908481590469
20
-46.13443913075961
30
0
40
14.00000000000003
210
0
220
-0
230
1
100
AcDbArc
50
51.127533714087029
51
87.048411345152303
0
LINE
5
15A
100
AcDbEntity
8
PERIMETER
100
AcDbLine
10
10.116836810690646
20
-35.234811527676186
30
0
11
22.790227441235686
21
-45.450897004551734
31
0
0
ARC
5
15B
100
AcDbEntity
8
PERIMETER
100
AcDbCircle
10
24.045405435883055
20
-43.893807346968373
30
0
40
2.0000000000000155
210
0
220
0
230
1
100
AcDbArc
50
231.12753371408735
51
321.12753369558607
0
LINE
5
15C
100
AcDbEntity
8
PERIMETER
100
AcDbLine
10
25.602495093061105
20
-45.14898534211855
30
0
11
29.368029078916869
21
-40.477716370081637
31
0
0
ARC
5
15D
100
AcDbEntity
8
PERIMETER
100
AcDbCircle
10
27.810939421738816
20
-39.222538374931482
30
0
40
2.000000000000008
210
-0
220
0
230
1
100
AcDbArc
50
-38.872466304413692
51
51.127533695594771
0
ARC
5
15E
100
AcDbEntity
8
PERIMETER
100
AcDbCircle
10
68.016096405220949
20
0.45546603978532385
30
0
40
54.500504637751717
210
0
220
0
230
1
100
AcDbArc
50
203.8764652199317
51
224.38368368476546
0
ARC
5
15F
100
AcDbEntity
8
PERIMETER
100
AcDbCircle
10
15.249999999999984
20
-22.250000000000178
30
0
40
2.9999999999999822
210
0
220
-0
230
1
100
AcDbArc
50
12.425579351186766
51
34.139233600074697
0
ARC
5
160
100
AcDbEntity
8
PERIMETER
100
AcDbCircle
10
68.016096405220949
20
0.45546603978532385
30
0
40
54.500504637751732
210
0
220
0
230
1
100
AcDbArc
50
193.33468239238167
51
202.68834773132741
0
ARC
5
161
100
AcDbEntity
8
PERIMETER
100
AcDbCircle
10
21.796231956683094
20
-10.499992471836165
30
0
40
7
210
0
220
0
230
1
100
AcDbArc
50
180.12613843432473
51
193.33468239238158
0
LINE
5
162
100
AcDbEntity
8
PERIMETER
100
AcDbLine
10
14.796248920261728
20
-10.515403176333386
30
0
11
14.772643628514784
21
0.20679591769740657
31
0
0
ARC
5
163
100
AcDbEntity
8
PERIMETER
100
AcDbCircle
10
22.772624241567776
20
0.22440815140851833
30
0
40
8.0000000000000036
210
0
220
0
230
1
100
AcDbArc
50
133.14719096562618
51
180.12613843432473
0
ARC
5
164
100
AcDbEntity
8
PERIMETER
100
AcDbCircle
10
15.24999999999995
20
8.2499999999998774
30
0
40
2.9999999999999964
210
-0
220
0
230
1
100
AcDbArc
50
-46.852809034373784
51
39.486988491473213
0
ARC
5
165
100
AcDbEntity
8
PERIMETER
100
AcDbCircle
10
22.96769012823458
20
14.60902972823277
30
0
40
7.0000000000000036
210
0
220
0
230
1
100
AcDbArc
50
161.50971169403707
51
219.48698849147317
0
ARC
5
166
100
AcDbEntity
8
PERIMETER
100
AcDbCircle
10
68.016096405220765
20
-0.45546603978565248
30
0
40
54.500504637751533
210
0
220
0
230
1
100
AcDbArc
50
135.61631631451991
51
161.50971169403712
0
ARC
5
167
100
AcDbEntity
8
PERIMETER
100
AcDbCircle
10
27.810939414407265
20
39.222538384026308
30
0
40
2.0000000058940599
210
-0
220
0
230
1
100
AcDbArc
50
-51.127533695600398
51
38.872466304413692
0
LINE
5
168
100
AcDbEntity
8
PERIMETER
100
AcDbLine
10
29.368029076174107
20
40.477716382875506
30
0
11
25.602495093061101
21
45.148985342118316
31
0
0
ARC
5
169
100
AcDbEntity
8
PERIMETER
100
AcDbCircle
10
24.045405435883058
20
43.89380734696816
30
0
40
1.9999999999999973
210
0
220
-0
230
1
100
AcDbArc
50
38.872466304413891
51
128.87246628591274
0
LINE
5
16A
100
AcDbEntity
8
PERIMETER
100
AcDbLine
10
22.790227441235697
20
45.450897004551507
30
0
11
9.9500606210208673
21
35.100372382001112
31
0
0
ARC
5
16B
100
AcDbEntity
8
PERIMETER
100
AcDbCircle
10
1.1638146584892572
20
45.999999985084557
30
0
40
14.000000000000057
210
-0
220
0
230
1
100
AcDbArc
50
270.00000000000006
51
308.87246628591288
0
LINE
5
16C
100
AcDbEntity
8
PERIMETER
100
AcDbLine
10
1.1638146584892763
20
31.9999999850845
30
0
11
-1.1638146584892788
21
31.999999985084507
31
0
0
ARC
5
16D
100
AcDbEntity
8
PERIMETER
100
AcDbCircle
10
-1.1638146584892572
20
45.999999985084571
30
0
40
14.000000000000066
210
0
220
0
230
1
100
AcDbArc
50
231.12753371408706
51
269.99999999999989
0
LINE
5
16E
100
AcDbEntity
8
PERIMETER
100
AcDbLine
10
-9.9500606210208726
20
35.100372382001119
30
0
11
-22.790227441235697
21
45.450897004551507
31
0
0
ARC
5
16F
100
AcDbEntity
8
PERIMETER
100
AcDbCircle
10
-24.045405435883058
20
43.89380734696816
30
0
40
1.999999999999996
210
0
220
-0
230
1
100
AcDbArc
50
51.127533714087285
51
141.12753369558584
0
LINE
5
170
100
AcDbEntity
8
PERIMETER
100
AcDbLine
10
-25.602495093061094
20
45.148985342118316
30
0
11
-29.368029071585315
21
40.477716379176471
31
0
0
ARC
5
171
100
AcDbEntity
8
PERIMETER
100
AcDbCircle
10
-27.810939414407265
20
39.222538384026301
30
0
40
2.0000000000000129
210
0
220
0
230
1
100
AcDbArc
50
141.12753369558595
51
231.12753371409323
0
ARC
5
172
100
AcDbEntity
8
PERIMETER
100
AcDbCircle
10
-68.016096405220949
20
-0.4554660397857857
30
0
40
54.500504637751746
210
0
220
-0
230
1
100
AcDbArc
50
18.490288305962931
51
44.383683685533711
0
ARC
5
173
100
AcDbEntity
8
PERIMETER
100
AcDbCircle
10
-22.96769012823459
20
14.609029728232777
30
0
40
7.0000000000000098
210
-0
220
0
230
1
100
AcDbArc
50
-39.486988491473134
51
18.490288305962871
0
ARC
5
174
100
AcDbEntity
8
PERIMETER
100
AcDbCircle
10
-15.24999999999995
20
8.2499999999998828
30
0
40
2.9999999999999978
210
0
220
0
230
1
100
AcDbArc
50
140.5130115085268
51
226.85280903437379
0
ARC
5
175
100
AcDbEntity
8
PERIMETER
100
AcDbCircle
10
-22.772624241567776
20
0.22440815140851722
30
0
40
8
210
-0
220
0
230
1
100
AcDbArc
50
-0.12613843432472929
51
46.852809034373827
0
LINE
5
176
100
AcDbEntity
8
PERIMETER
100
AcDbLine
10
-14.772643628514786
20
0.20679591769740513
30
0
11
-14.796248920261748
21
-10.515403176333464
31
0
0
ARC
5
177
100
AcDbEntity
8
PERIMETER
100
AcDbCircle
10
-21.796231956683112
20
-10.499992471836242
30
0
40
7.0000000000000036
210
-0
220
0
230
1
100
AcDbArc
50
346.66531760761819
51
359.87386156567527
0
ENDSEC
0
SECTION
2
OBJECTS
0
DICTIONARY
5
C
100
AcDbDictionary
3
ACAD_GROUP
350
D
3
ACAD_MLINESTYLE
350
17
0
DICTIONARY
5
D
100
AcDbDictionary
0
DICTIONARY
5
1A
330
C
100
AcDbDictionary
0
DICTIONARY
5
17
100
AcDbDictionary
0
ENDSEC
0
EOF
