0
SECTION
2
HEADER
9
$INSUNITS
70
4
9
$ACADVER
1
AC1014
9
$HANDSEED
5
FFFF
0
ENDSEC
0
SECTION
2
TABLES
0
TABLE
2
VPORT
5
8
100
AcDbSymbolTable
0
ENDTAB
0
TABLE
2
LTYPE
5
5
100
AcDbSymbolTable
0
LTYPE
5
14
100
AcDbSymbolTableRecord
100
AcDbLinetypeTableRecord
2
BYBLOCK
70
0
0
LTYPE
5
15
100
AcDbSymbolTableRecord
100
AcDbLinetypeTableRecord
2
BYLAYER
70
0
0
ENDTAB
0
TABLE
2
LAYER
5
2
100
AcDbSymbolTable
70
2
0
LAYER
5
50
100
AcDbSymbolTableRecord
100
AcDbLayerTableRecord
2
0
70
0
6
CONTINUOUS
0
ENDTAB
0
TABLE
2
STYLE
5
3
100
AcDbSymbolTable
70
1
0
STYLE
5
11
100
AcDbSymbolTableRecord
100
AcDbTextStyleTableRecord
2
STANDARD
70
0
0
ENDTAB
0
TABLE
2
VIEW
5
6
100
AcDbSymbolTable
70
0
0
ENDTAB
0
TABLE
2
UCS
5
7
100
AcDbSymbolTable
70
0
0
ENDTAB
0
TABLE
2
APPID
5
9
100
AcDbSymbolTable
70
2
0
APPID
5
12
100
AcDbSymbolTableRecord
100
AcDbRegAppTableRecord
2
ACAD
70
0
0
ENDTAB
0
TABLE
2
DIMSTYLE
5
A
100
AcDbSymbolTable
70
1
0
ENDTAB
0
TABLE
2
BLOCK_RECORD
5
1
100
AcDbSymbolTable
70
1
0
BLOCK_RECORD
5
1F
100
AcDbSymbolTableRecord
100
AcDbBlockTableRecord
2
*MODEL_SPACE
0
BLOCK_RECORD
5
1B
100
AcDbSymbolTableRecord
100
AcDbBlockTableRecord
2
*PAPER_SPACE
0
ENDTAB
0
ENDSEC
0
SECTION
2
BLOCKS
0
BLOCK
5
20
100
AcDbEntity
100
AcDbBlockBegin
2
*MODEL_SPACE
0
ENDBLK
5
21
100
AcDbEntity
100
AcDbBlockEnd
0
BLOCK
5
1C
100
AcDbEntity
100
AcDbBlockBegin
2
*PAPER_SPACE
0
ENDBLK
5
1D
100
AcDbEntity
100
AcDbBlockEnd
0
ENDSEC
0
SECTION
2
ENTITIES
0
CIRCLE
5
100
100
AcDbEntity
8
0
100
AcDbCircle
10
14.249999999999892
20
-48.804059524067469
30
0
40
1.4750000000000085
0
CIRCLE
5
101
100
AcDbEntity
8
0
100
AcDbCircle
10
23.592537945481311
20
-56.335127491937044
30
0
40
1.4750000000000085
0
LWPOLYLINE
5
102
100
AcDbEntity
8
0
100
AcDbPolyline
90
7
70
1
43
0.0
10
9.9244303991330405
20
-44.242724920043706
42
-0.47753487165549846
10
10.287032149213527
20
-45.755308006827462
42
0.037861351304444742
10
9.872610332841715
20
-46.387769040268807
42
-0.37101672246581352
10
8.6498498326267228
20
-46.842271477339928
42
0.063774992919361825
10
3.9467429090537971
20
-45.754484712343249
42
-0.95124921972504772
10
4.0514810636674374
20
-43.659721620074087
10
7.3444794786963179
20
-43.659721620073888
42
-0.11158056810511899
0
CIRCLE
5
103
100
AcDbEntity
8
0
100
AcDbCircle
10
79.877762468826518
20
-101.7069369451724
30
0
40
3.499999999999996
0
LWPOLYLINE
5
104
100
AcDbEntity
8
0
100
AcDbPolyline
90
28
70
1
43
0.0
10
59.331025875114356
20
-91.566344489664033
10
11.465316023520433
20
-52.981549188197775
42
0.17125858036275038
10
2.0514810636665803
20
-49.659721620073555
10
-1.9380053117856733e-11
20
-49.659721620073682
10
-1.9211299218113709e-11
20
-39.659721620073896
10
7.3444794786965995
20
-39.659721620073995
42
-0.17125858036272221
10
13.620369451932275
20
-41.874273332156534
10
65.606915848352742
20
-83.780896201748646
42
0.21342176528340154
10
77.449256638518364
20
-86.904830357521448
42
-0.067553275669046731
10
81.482491211294814
20
-86.79302244685519
42
-0.35279869617957516
10
84.144405753906554
20
-89.455579670245385
10
84.483410829996046
20
-92.613367614418053
42
0.41421356237299201
10
87.786496797373687
20
-95.276002229250423
10
94.119806925834268
20
-94.596088213507954
42
-0.38420874995942561
10
98.458511034295213
20
-97.737581487820862
42
-0.051805329260536936
10
98.877650863904606
20
-101.64181417995559
42
-0.3842087499594195
10
95.304641928040596
20
-105.63267129059824
10
88.971331799582529
20
-106.31258530634186
42
0.41421356237311419
10
86.308697184748667
20
-109.61567127372037
10
86.988611200492898
20
-115.94898140217816
42
-0.38420874995948462
10
83.847117926181269
20
-120.28768551064032
42
-0.051805329260597499
10
79.942885234042038
20
-120.7068253402504
42
-0.38420874995944454
10
75.952028123399998
20
-117.13381640438604
10
75.272114107657174
20
-110.80050627592777
42
0.41421356237318324
10
71.969028140278638
20
-108.13787166109452
10
68.811240196109679
20
-108.47687673718525
42
-0.35279869617965592
10
65.644327532587567
20
-106.44078632130338
42
-0.067553275669201746
10
64.897476692042503
20
-102.47572693335222
42
0.21342176528333123
0
ARC
5
105
100
AcDbEntity
8
0
100
AcDbCircle
10
71.923468359211014
20
-102.56087208189891
30
0
40
1.5500000000005478
100
AcDbArc
50
-112.81099402609817
51
125.06606145431309
0
ARC
5
106
100
AcDbEntity
8
0
100
AcDbCircle
10
70.432038213658103
20
-102.72098492003514
30
0
40
1.5499999999994454
100
AcDbArc
50
67.189005973951367
51
305.06606145425218
0
ARC
5
107
100
AcDbEntity
8
0
100
AcDbCircle
10
89.323486723994776
20
-100.69288897030816
30
0
40
1.5499999999999881
100
AcDbArc
50
-112.81099402605231
51
125.06606145424875
0
ARC
5
108
100
AcDbEntity
8
0
100
AcDbCircle
10
87.832056578441893
20
-100.85300180844462
30
0
40
1.5500000000005416
100
AcDbArc
50
67.189005973887504
51
305.06606145429834
0
ARC
5
109
100
AcDbEntity
8
0
100
AcDbCircle
10
79.023827332098733
20
-93.752642835557054
30
0
40
1.5500000000005418
100
AcDbArc
50
-202.81099402611298
51
35.06606145429879
0
ARC
5
110
100
AcDbEntity
8
0
100
AcDbCircle
10
78.863714493962277
20
-92.261212690004157
30
0
40
1.5499999999999883
100
AcDbArc
50
-22.810994026052274
51
215.06606145424871
0
ARC
5
111
100
AcDbEntity
8
0
100
AcDbCircle
10
80.891810443689252
20
-111.15266120034082
30
0
40
1.5499999999994456
100
AcDbArc
50
-202.81099402604812
51
35.066061454251781
0
ARC
5
112
100
AcDbEntity
8
0
100
AcDbCircle
10
80.731697605553023
20
-109.66123105478792
30
0
40
1.5500000000005485
100
AcDbArc
50
-22.810994026098172
51
215.06606145431306
0
ENDSEC
0
SECTION
2
OBJECTS
0
DICTIONARY
5
C
100
AcDbDictionary
3
ACAD_GROUP
350
D
3
ACAD_MLINESTYLE
350
17
0
DICTIONARY
5
D
100
AcDbDictionary
0
DICTIONARY
5
1A
330
C
100
AcDbDictionary
0
DICTIONARY
5
17
100
AcDbDictionary
0
ENDSEC
0
EOF
