0
SECTION
2
HEADER
9
$INSUNITS
70
4
9
$ACADVER
1
AC1014
9
$HANDSEED
5
FFFF
0
ENDSEC
0
SECTION
2
TABLES
0
TABLE
2
VPORT
5
8
100
AcDbSymbolTable
0
ENDTAB
0
TABLE
2
LTYPE
5
5
100
AcDbSymbolTable
0
LTYPE
5
14
100
AcDbSymbolTableRecord
100
AcDbLinetypeTableRecord
2
BYBLOCK
70
0
0
LTYPE
5
15
100
AcDbSymbolTableRecord
100
AcDbLinetypeTableRecord
2
BYLAYER
70
0
0
ENDTAB
0
TABLE
2
LAYER
5
2
100
AcDbSymbolTable
70
2
0
LAYER
5
50
100
AcDbSymbolTableRecord
100
AcDbLayerTableRecord
2
0
70
0
6
CONTINUOUS
0
ENDTAB
0
TABLE
2
STYLE
5
3
100
AcDbSymbolTable
70
1
0
STYLE
5
11
100
AcDbSymbolTableRecord
100
AcDbTextStyleTableRecord
2
STANDARD
70
0
0
ENDTAB
0
TABLE
2
VIEW
5
6
100
AcDbSymbolTable
70
0
0
ENDTAB
0
TABLE
2
UCS
5
7
100
AcDbSymbolTable
70
0
0
ENDTAB
0
TABLE
2
APPID
5
9
100
AcDbSymbolTable
70
2
0
APPID
5
12
100
AcDbSymbolTableRecord
100
AcDbRegAppTableRecord
2
ACAD
70
0
0
ENDTAB
0
TABLE
2
DIMSTYLE
5
A
100
AcDbSymbolTable
70
1
0
ENDTAB
0
TABLE
2
BLOCK_RECORD
5
1
100
AcDbSymbolTable
70
1
0
BLOCK_RECORD
5
1F
100
AcDbSymbolTableRecord
100
AcDbBlockTableRecord
2
*MODEL_SPACE
0
BLOCK_RECORD
5
1B
100
AcDbSymbolTableRecord
100
AcDbBlockTableRecord
2
*PAPER_SPACE
0
ENDTAB
0
ENDSEC
0
SECTION
2
BLOCKS
0
BLOCK
5
20
100
AcDbEntity
100
AcDbBlockBegin
2
*MODEL_SPACE
0
ENDBLK
5
21
100
AcDbEntity
100
AcDbBlockEnd
0
BLOCK
5
1C
100
AcDbEntity
100
AcDbBlockBegin
2
*PAPER_SPACE
0
ENDBLK
5
1D
100
AcDbEntity
100
AcDbBlockEnd
0
ENDSEC
0
SECTION
2
ENTITIES
0
CIRCLE
5
100
100
AcDbEntity
8
0
100
AcDbCircle
10
2.5757174171303632e-13
20
59.29541889154568
30
0
40
3.4999999999999964
0
ARC
5
101
100
AcDbEntity
8
0
100
AcDbCircle
10
5.3740115370173136
20
64.669430428564297
30
0
40
1.5499999999998657
100
AcDbArc
50
92.357690020054122
51
357.64230997995548
0
ARC
5
102
100
AcDbEntity
8
0
100
AcDbCircle
10
6.8589357775089876
20
66.154354669056204
30
0
40
1.5499999999997378
100
AcDbArc
50
-87.642309979941103
51
177.64230997995011
0
ARC
5
103
100
AcDbEntity
8
0
100
AcDbCircle
10
5.3740115370183101
20
53.921407354528156
30
0
40
1.5499999999996585
100
AcDbArc
50
2.3576900200805251
51
267.64230997992541
0
ARC
5
104
100
AcDbEntity
8
0
100
AcDbCircle
10
6.8589357775099868
20
52.436483114036648
30
0
40
1.5500000000003002
100
AcDbArc
50
-177.64230997994468
51
87.642309979951165
0
CIRCLE
5
105
100
AcDbEntity
8
0
100
AcDbCircle
10
-1.4743761767022079e-12
20
-11.999999999976305
30
0
40
1.4750000000000085
0
CIRCLE
5
106
100
AcDbEntity
8
0
100
AcDbCircle
10
0
20
0
30
0
40
1.4750000000000085
0
LWPOLYLINE
5
107
100
AcDbEntity
8
0
100
AcDbPolyline
90
7
70
1
43
0.0
10
-0.83652357969144897
20
-18.230293254906659
42
-0.47753487165549935
10
0.11352529188108147
20
-16.998711034667402
42
0.037861351304444374
10
0.86601113108492445
20
-16.924431410918448
42
-0.37101672246580858
10
1.9872526894367271
20
-17.591164546449015
42
0.063774992919361825
10
4.0919800871913399
20
-21.935427126197467
42
-0.95124921972504073
10
2.3953806007258911
20
-23.168534046253541
10
0.32873102724954334
20
-20.604787159013544
42
-0.11158056810511945
0
ARC
5
108
100
AcDbEntity
8
0
100
AcDbCircle
10
-6.8589357775106476
20
66.154354669054896
30
0
40
1.5500000000001593
100
AcDbArc
50
2.3576900200513
51
267.64230998000949
0
ARC
5
109
100
AcDbEntity
8
0
100
AcDbCircle
10
-5.374011537017811
20
64.669430428563629
30
0
40
1.5499999999992431
100
AcDbArc
50
-177.64230997991265
51
87.642309979972794
0
ARC
5
110
100
AcDbEntity
8
0
100
AcDbCircle
10
-5.3740115370174522
20
53.921407354527631
30
0
40
1.5500000000000562
100
AcDbArc
50
-87.642309979934225
51
177.64230997994483
0
ARC
5
111
100
AcDbEntity
8
0
100
AcDbCircle
10
-6.8589357775086945
20
52.436483114036079
30
0
40
1.5499999999996918
100
AcDbArc
50
92.357690020081591
51
357.6423099799303
0
LWPOLYLINE
5
112
100
AcDbEntity
8
0
100
AcDbPolyline
90
28
70
1
43
0.0
10
14.474264908969507
20
65.920798529343841
10
9.9702056147303342
20
61.416739235105659
42
0.41421356237318391
10
9.9702056147308138
20
57.174098547986219
10
12.215929233296968
20
54.928374929424024
42
-0.35279869617965304
10
12.618261112171027
20
51.184963509440344
42
-0.067553275669202537
10
9.9999999999974953
20
48.115079004042357
42
0.2134217652833322
10
4.9999999999998535
20
36.93473911654538
10
4.9999999999999378
20
-11.546254760042324
42
0.17125858036275016
10
8.3218275681236342
20
-20.960089719896352
10
9.6093145119107692
20
-22.557259693393142
10
1.8238662239935044
20
-28.833149666628959
10
-2.7854482879174953
20
-23.115143148307709
42
-0.17125858036272279
10
-5.0000000000000133
20
-16.839253175072027
10
-5.0000000000000782
20
36.9347391165484
42
0.21342176528340279
10
-10.000000000001767
20
48.115079004047644
42
-0.067553275669047508
10
-12.618261112168705
20
51.18496350943893
42
-0.35279869617957565
10
-12.215929233295038
20
54.928374929418979
10
-9.9702056147291476
20
57.174098547986524
42
0.41421356237298951
10
-9.9702056147297569
20
61.416739235104679
10
-14.47426490896909
20
65.920798529345888
42
-0.38420874995942578
10
-14.75139452668158
20
71.270240790770487
42
-0.051805329260536714
10
-11.974821899223436
20
74.046813418228425
42
-0.38420874995941795
10
-6.6253796377987051
20
73.769683800514869
10
-2.1213203435600336
20
69.265624506276353
42
0.41421356237311124
10
2.1213203435597627
20
69.265624506276311
10
6.6253796377976748
20
73.76968380051531
42
-0.3842087499594849
10
11.97482189922243
20
74.046813418229533
42
-0.051805329260597388
10
14.751394526683734
20
71.270240790768312
42
-0.38420874995944371
0
ENDSEC
0
SECTION
2
OBJECTS
0
DICTIONARY
5
C
100
AcDbDictionary
3
ACAD_GROUP
350
D
3
ACAD_MLINESTYLE
350
17
0
DICTIONARY
5
D
100
AcDbDictionary
0
DICTIONARY
5
1A
330
C
100
AcDbDictionary
0
DICTIONARY
5
17
100
AcDbDictionary
0
ENDSEC
0
EOF
