0
SECTION
2
HEADER
9
$INSUNITS
70
4
9
$ACADVER
1
AC1014
9
$HANDSEED
5
FFFF
0
ENDSEC
0
SECTION
2
TABLES
0
TABLE
2
VPORT
5
8
100
AcDbSymbolTable
0
ENDTAB
0
TABLE
2
LTYPE
5
5
100
AcDbSymbolTable
0
LTYPE
5
14
100
AcDbSymbolTableRecord
100
AcDbLinetypeTableRecord
2
BYBLOCK
70
0
0
LTYPE
5
15
100
AcDbSymbolTableRecord
100
AcDbLinetypeTableRecord
2
BYLAYER
70
0
0
ENDTAB
0
TABLE
2
LAYER
5
2
100
AcDbSymbolTable
70
2
0
LAYER
5
50
100
AcDbSymbolTableRecord
100
AcDbLayerTableRecord
2
0
70
0
6
CONTINUOUS
0
ENDTAB
0
TABLE
2
STYLE
5
3
100
AcDbSymbolTable
70
1
0
STYLE
5
11
100
AcDbSymbolTableRecord
100
AcDbTextStyleTableRecord
2
STANDARD
70
0
0
ENDTAB
0
TABLE
2
VIEW
5
6
100
AcDbSymbolTable
70
0
0
ENDTAB
0
TABLE
2
UCS
5
7
100
AcDbSymbolTable
70
0
0
ENDTAB
0
TABLE
2
APPID
5
9
100
AcDbSymbolTable
70
2
0
APPID
5
12
100
AcDbSymbolTableRecord
100
AcDbRegAppTableRecord
2
ACAD
70
0
0
ENDTAB
0
TABLE
2
DIMSTYLE
5
A
100
AcDbSymbolTable
70
1
0
ENDTAB
0
TABLE
2
BLOCK_RECORD
5
1
100
AcDbSymbolTable
70
1
0
BLOCK_RECORD
5
1F
100
AcDbSymbolTableRecord
100
AcDbBlockTableRecord
2
*MODEL_SPACE
0
BLOCK_RECORD
5
1B
100
AcDbSymbolTableRecord
100
AcDbBlockTableRecord
2
*PAPER_SPACE
0
ENDTAB
0
ENDSEC
0
SECTION
2
BLOCKS
0
BLOCK
5
20
100
AcDbEntity
100
AcDbBlockBegin
2
*MODEL_SPACE
0
ENDBLK
5
21
100
AcDbEntity
100
AcDbBlockEnd
0
BLOCK
5
1C
100
AcDbEntity
100
AcDbBlockBegin
2
*PAPER_SPACE
0
ENDBLK
5
1D
100
AcDbEntity
100
AcDbBlockEnd
0
ENDSEC
0
SECTION
2
ENTITIES
0
ELLIPSE
5
100
100
AcDbEntity
8
0
100
AcDbEllipse
10
9.0774610050914362e-13
20
19.999844099974755
30
0
11
-8.5138229752024901e-13
21
87.899327384149785
31
0.0
40
0.096701536324698009
41
1.725474720943776
42
1.8053373529963785
0
ARC
5
101
100
AcDbEntity
8
0
100
AcDbCircle
10
-7.4986218175585684
20
6.4714320253184257
30
0
40
0.90000000000000102
100
AcDbArc
50
74.539134591781036
51
180.86354862535435
0
LINE
5
102
100
AcDbEntity
8
0
100
AcDbLine
10
-7.2586997026156466
20
7.3388635089304266
30
0
11
-3.6121774039985795
21
6.3302750975118096
31
0
0
ARC
5
103
100
AcDbEntity
8
0
100
AcDbCircle
10
-3.878757531712933
20
5.3664623379429166
30
0
40
1.0000000000000042
100
AcDbArc
50
-31.993499345800302
51
74.539134591781306
0
LINE
5
104
100
AcDbEntity
8
0
100
AcDbLine
10
-3.0306493175308225
20
4.8366392948079096
30
0
11
-6.6042220642152021
21
-0.8837166612240055
31
0
0
ARC
5
105
100
AcDbEntity
8
0
100
AcDbCircle
10
-7.3675194569790889
20
-0.40687592240249471
30
0
40
0.89999999999999303
100
AcDbArc
50
181.32362455756035
51
328.00650065419904
0
LWPOLYLINE
5
106
100
AcDbEntity
8
0
100
AcDbPolyline
90
8
70
1
43
0.0
10
0.26641234748822684
20
9.7938458597034241
10
3.336039642953903
20
10.642296189470413
42
0.50154121987849687
10
3.9177355096484803
20
12.135978382640786
10
0.84810821418281312
20
17.049649385614611
42
0.55438321313537586
10
-0.84810821418099813
20
17.049649385614607
10
-3.9177355096466684
20
12.135978382640795
42
0.5015412198784962
10
-3.3360396429520867
20
10.642296189470411
10
-0.26641234748641301
20
9.7938458597034312
42
0.13565756356945155
0
LWPOLYLINE
5
107
100
AcDbEntity
8
0
100
AcDbPolyline
90
6
70
1
43
0.0
10
-1.950744051001652
20
-11.606010472925917
10
-6.2794006057860718
20
-10.367694565750426
42
0.54805725652005544
10
-7.5423022288822494
20
-11.484468745926932
10
-6.5162538296510597
20
-18.009397119740189
42
0.69417649550522942
10
-4.6802848062777223
20
-18.383878533992053
10
-1.3776766507244891
20
-13.097266067354312
42
0.49873989764212795
0
LWPOLYLINE
5
108
100
AcDbEntity
8
0
100
AcDbPolyline
90
8
70
1
43
0.0
10
-4.3044241456937655
20
-7.160618513684188
10
-0.27504081390402391
20
-8.3133201458678663
42
0.14022445672350869
10
0.27504081390583135
20
-8.3133201458678663
10
4.3044241456955836
20
-7.1606185136841916
42
0.4987398976421395
10
4.8774915459727648
20
-5.6693629192557804
10
0.84810821418301152
20
0.7806266500134651
42
0.55438321313561922
10
-0.84810821418118854
20
0.78062665001346732
10
-4.8774915459709458
20
-5.6693629192557848
42
0.49873989764213089
0
ELLIPSE
5
109
100
AcDbEntity
8
0
100
AcDbEllipse
10
9.0774610050914362e-13
20
19.999844099974755
30
0
11
8.5138229752024901e-13
21
87.899327384149785
31
0.0
40
0.096701536324698009
41
4.4778478470026757
42
4.5577104790562233
0
ARC
5
110
100
AcDbEntity
8
0
100
AcDbCircle
10
7.3675194569808964
20
-0.40687592240249476
30
0
40
0.9000000000000028
100
AcDbArc
50
211.99349934580087
51
358.67608368966455
0
LINE
5
111
100
AcDbEntity
8
0
100
AcDbLine
10
6.6042220642170024
20
-0.88371666122400772
30
0
11
3.030649317532629
21
4.8366392948079167
31
0
0
ARC
5
112
100
AcDbEntity
8
0
100
AcDbCircle
10
3.8787575317147365
20
5.3664623379429255
30
0
40
1.0000000000000036
100
AcDbArc
50
105.46086540821865
51
211.99349934580047
0
LINE
5
113
100
AcDbEntity
8
0
100
AcDbLine
10
3.6121774040003833
20
6.3302750975118194
30
0
11
7.2586997026174584
21
7.3388635089304106
31
0
0
ARC
5
114
100
AcDbEntity
8
0
100
AcDbCircle
10
7.4986218175603696
20
6.471432025318407
30
0
40
0.89999999999999858
100
AcDbArc
50
-0.86384495898143976
51
105.46086540821825
0
LWPOLYLINE
5
115
100
AcDbEntity
8
0
100
AcDbPolyline
90
6
70
1
43
0.0
10
1.3776766507263083
20
-13.097266067354321
10
4.6802848062795546
20
-18.383878533992075
42
0.69417649550522509
10
6.516253829652884
20
-18.0093971197402
10
7.5423022288840667
20
-11.484468745926939
42
0.54805725652006265
10
6.2794006057878917
20
-10.36769456575043
10
1.9507440510034617
20
-11.606010472925918
42
0.49873989764212501
0
CIRCLE
5
116
100
AcDbEntity
8
0
100
AcDbCircle
10
23.592537945501007
20
56.335127491950338
30
0
40
1.4750000000000085
0
LWPOLYLINE
5
117
100
AcDbEntity
8
0
100
AcDbPolyline
90
4
70
1
43
0.0
10
3.0000000000000471
20
24.500000000000028
42
-0.99999999999999989
10
-3.0000000000000382
20
24.500000000000313
10
-2.9999999999993259
20
36.659721620087709
42
-0.99999999999999989
10
3.0000000000006182
20
36.659721620087424
0
CIRCLE
5
118
100
AcDbEntity
8
0
100
AcDbCircle
10
23.592537945500915
20
-39.675405871862786
30
0
40
1.4750000000000085
0
CIRCLE
5
119
100
AcDbEntity
8
0
100
AcDbCircle
10
9.9999999999999982
20
-5.0000000000000018
30
0
40
1.4750000000000085
0
CIRCLE
5
120
100
AcDbEntity
8
0
100
AcDbCircle
10
10.000000000000002
20
15.00000000000014
30
0
40
1.4750000000000085
0
CIRCLE
5
121
100
AcDbEntity
8
0
100
AcDbCircle
10
15.25000000000006
20
20.250000000000053
30
0
40
1.4999999999999858
0
CIRCLE
5
122
100
AcDbEntity
8
0
100
AcDbCircle
10
14.250000000000052
20
48.804059524067469
30
0
40
1.4750000000000085
0
CIRCLE
5
123
100
AcDbEntity
8
0
100
AcDbCircle
10
-23.592537945500837
20
56.335127491950637
30
0
40
1.4750000000000085
0
CIRCLE
5
124
100
AcDbEntity
8
0
100
AcDbCircle
10
-15.249999999999911
20
20.25000000000006
30
0
40
1.4999999999999858
0
CIRCLE
5
125
100
AcDbEntity
8
0
100
AcDbCircle
10
-14.249999999999908
20
-32.144337903979611
30
0
40
1.4750000000000085
0
CIRCLE
5
126
100
AcDbEntity
8
0
100
AcDbCircle
10
-9.9999999999999307
20
-4.9999999999999982
30
0
40
1.4750000000000085
0
CIRCLE
5
127
100
AcDbEntity
8
0
100
AcDbCircle
10
-14.249999999999892
20
48.804059524067469
30
0
40
1.4750000000000085
0
CIRCLE
5
128
100
AcDbEntity
8
0
100
AcDbCircle
10
-15.249999999999918
20
-10.250000000000053
30
0
40
1.5000000000000036
0
CIRCLE
5
129
100
AcDbEntity
8
0
100
AcDbCircle
10
15.250000000000053
20
-10.25000000000006
30
0
40
1.5000000000000036
0
CIRCLE
5
130
100
AcDbEntity
8
0
100
AcDbCircle
10
-9.9999999999999272
20
15.000000000000144
30
0
40
1.4750000000000085
0
CIRCLE
5
131
100
AcDbEntity
8
0
100
AcDbCircle
10
14.249999999999964
20
-32.144337903979626
30
0
40
1.4750000000000085
0
CIRCLE
5
132
100
AcDbEntity
8
0
100
AcDbCircle
10
-23.592537945500858
20
-39.675405871862772
30
0
40
1.4750000000000085
0
LWPOLYLINE
5
133
100
AcDbEntity
8
0
100
AcDbPolyline
90
48
70
1
43
0.0
10
-14.74999521927991
20
-3.8238861894877978
42
-0.25597239181422898
10
-15.67337742960412
20
-5.5093814089866378
10
-18.076613008955839
20
-7.044459140195567
42
0.25597239181416798
10
-18.999995219279974
20
-8.7299543596946805
10
-18.99998148905448
20
-22.375938532004739
42
-0.22686211252193639
10
-24.586146529197276
20
-34.054121106515829
10
-28.287572589703437
20
-37.037859722551147
42
0.41421356237306262
10
-28.740440084107959
20
-41.25626120089683
10
-26.230084094813794
20
-44.370440516064036
42
0.4142135623731012
10
-22.011682616467741
20
-44.82330801046853
10
-11.465316023540755
20
-36.321827568123467
42
-0.17125858036272357
10
-2.0514810636870284
20
-33.00000000000005
10
2.0514810636860279
20
-33.000000000000085
42
-0.17125858036272323
10
11.465316023539723
20
-36.321827568123545
10
22.011682616466636
20
-44.823308010468715
42
0.41421356237310064
10
26.230084094812753
20
-44.370440516064242
10
28.740440084106915
20
-41.256261200897029
42
0.41421356237306328
10
28.287572589702421
20
-37.037859722551325
10
24.586146529198423
20
-34.054121106513335
42
-0.22686211252193686
10
18.999981489056978
20
-22.375938532004845
10
18.999995219279157
20
-8.7299543596948137
42
0.25597239181416903
10
18.076613008955029
20
-7.044459140195678
10
15.673377429603315
20
-5.5093814089867497
42
-0.25597239181422915
10
14.749995219279111
20
-3.8238861894879106
10
14.749995219279178
20
13.823888602359665
42
-0.2559723918142911
10
15.673377429603249
20
15.509383821858657
10
18.076613008955022
20
17.044461553067443
42
0.25597239181416936
10
18.999995219279146
20
18.729956772566574
10
18.999981489053546
20
39.035660152092404
42
-0.22686211252193708
10
24.586146529196267
20
50.713842726603566
10
28.287572589702421
20
53.697581342638898
42
0.41421356237306295
10
28.740440084106915
20
57.915982820984581
10
26.230084094812725
20
61.030162136151773
42
0.41421356237310064
10
22.011682616466672
20
61.483029630556238
10
11.465316023539724
20
52.981549188211105
42
-0.17125858036272334
10
2.0514810636860425
20
49.659721620087652
10
-2.0514810636864613
20
49.659721620087652
42
-0.17125858036272393
10
-11.465316023540124
20
52.981549188211183
10
-22.011682616466985
20
61.483029630556423
42
0.41421356237310025
10
-26.230084094813098
20
61.030162136151986
10
-28.740440084107281
20
57.91598282098478
42
0.41421356237306234
10
-28.287572589702815
20
53.697581342639097
10
-24.586146529198839
20
50.713842726601058
42
-0.22686211252193675
10
-18.999981489057479
20
39.035660152092532
10
-18.999995219279796
20
18.729956772566709
42
0.25597239181416964
10
-18.076613008955679
20
17.044461553067556
10
-15.673377429603907
20
15.509383821858762
42
-0.2559723918142886
10
-14.749995219279855
20
13.823888602359771
0
ENDSEC
0
SECTION
2
OBJECTS
0
DICTIONARY
5
C
100
AcDbDictionary
3
ACAD_GROUP
350
D
3
ACAD_MLINESTYLE
350
17
0
DICTIONARY
5
D
100
AcDbDictionary
0
DICTIONARY
5
1A
330
C
100
AcDbDictionary
0
DICTIONARY
5
17
100
AcDbDictionary
0
ENDSEC
0
EOF
