0
SECTION
2
HEADER
9
$INSUNITS
70
4
9
$ACADVER
1
AC1014
9
$HANDSEED
5
FFFF
0
ENDSEC
0
SECTION
2
TABLES
0
TABLE
2
VPORT
5
8
100
AcDbSymbolTable
0
ENDTAB
0
TABLE
2
LTYPE
5
5
100
AcDbSymbolTable
0
LTYPE
5
14
100
AcDbSymbolTableRecord
100
AcDbLinetypeTableRecord
2
BYBLOCK
70
0
0
LTYPE
5
15
100
AcDbSymbolTableRecord
100
AcDbLinetypeTableRecord
2
BYLAYER
70
0
0
ENDTAB
0
TABLE
2
LAYER
5
2
100
AcDbSymbolTable
70
2
0
LAYER
5
50
100
AcDbSymbolTableRecord
100
AcDbLayerTableRecord
2
0
70
0
6
CONTINUOUS
0
ENDTAB
0
TABLE
2
STYLE
5
3
100
AcDbSymbolTable
70
1
0
STYLE
5
11
100
AcDbSymbolTableRecord
100
AcDbTextStyleTableRecord
2
STANDARD
70
0
0
ENDTAB
0
TABLE
2
VIEW
5
6
100
AcDbSymbolTable
70
0
0
ENDTAB
0
TABLE
2
UCS
5
7
100
AcDbSymbolTable
70
0
0
ENDTAB
0
TABLE
2
APPID
5
9
100
AcDbSymbolTable
70
2
0
APPID
5
12
100
AcDbSymbolTableRecord
100
AcDbRegAppTableRecord
2
ACAD
70
0
0
ENDTAB
0
TABLE
2
DIMSTYLE
5
A
100
AcDbSymbolTable
70
1
0
ENDTAB
0
TABLE
2
BLOCK_RECORD
5
1
100
AcDbSymbolTable
70
1
0
BLOCK_RECORD
5
1F
100
AcDbSymbolTableRecord
100
AcDbBlockTableRecord
2
*MODEL_SPACE
0
BLOCK_RECORD
5
1B
100
AcDbSymbolTableRecord
100
AcDbBlockTableRecord
2
*PAPER_SPACE
0
ENDTAB
0
ENDSEC
0
SECTION
2
BLOCKS
0
BLOCK
5
20
100
AcDbEntity
100
AcDbBlockBegin
2
*MODEL_SPACE
0
ENDBLK
5
21
100
AcDbEntity
100
AcDbBlockEnd
0
BLOCK
5
1C
100
AcDbEntity
100
AcDbBlockBegin
2
*PAPER_SPACE
0
ENDBLK
5
1D
100
AcDbEntity
100
AcDbBlockEnd
0
ENDSEC
0
SECTION
2
ENTITIES
0
LWPOLYLINE
5
100
100
AcDbEntity
8
0
100
AcDbPolyline
90
36
70
1
43
0.0
10
-18.999981489053546
20
-39.035660152092397
42
-0.22686211252193617
10
-24.586146529196267
20
-50.713842726603573
10
-28.287572589702421
20
-53.697581342638905
42
0.41421356237306389
10
-28.740440084106908
20
-57.915982820984581
10
-26.230084094812732
20
-61.030162136151773
42
0.4142135623731012
10
-22.011682616466672
20
-61.483029630556238
10
-11.465316023539717
20
-52.981549188211112
42
-0.17125858036272279
10
-2.0514810636860403
20
-49.659721620087652
10
2.0514810636864587
20
-49.659721620087645
42
-0.17125858036272484
10
11.465316023540122
20
-52.98154918821119
10
22.011682616466985
20
-61.483029630556416
42
0.41421356237309898
10
26.230084094813098
20
-61.030162136151993
10
28.740440084107281
20
-57.91598282098478
42
0.41421356237306084
10
28.287572589702812
20
-53.697581342639111
10
24.586146529198842
20
-50.713842726601079
42
-0.22686211252193697
10
18.999981489057479
20
-39.035660152092532
10
18.999995219279803
20
-18.729956772566709
10
18.999995219279974
20
8.7299543596946787
10
18.999981489054484
20
22.375938532004731
42
-0.22686211252193639
10
24.586146529197283
20
34.054121106515829
10
28.287572589703444
20
37.037859722551147
42
0.41421356237306295
10
28.740440084107966
20
41.25626120089683
10
26.230084094813794
20
44.37044051606405
42
0.41421356237310064
10
22.011682616467741
20
44.82330801046853
10
11.465316023540757
20
36.321827568123467
42
-0.17125858036272382
10
2.0514810636870253
20
33.00000000000005
10
-2.0514810636860279
20
33.000000000000092
42
-0.17125858036272382
10
-11.465316023539728
20
36.321827568123553
10
-22.011682616466643
20
44.823308010468722
42
0.41421356237310214
10
-26.230084094812756
20
44.370440516064242
10
-28.740440084106915
20
41.256261200897043
42
0.41421356237306395
10
-28.287572589702418
20
37.037859722551332
10
-24.586146529198423
20
34.054121106513335
42
-0.21641898198220172
10
-19.011869531162318
20
22.973024832024926
10
-19.022345735482375
20
-7.3891358586729616
10
-18.999607094875191
20
-3.2466635054147819
0
LINE
5
101
100
AcDbEntity
8
0
100
AcDbLine
10
7.2586997026156466
20
-7.3388635089304275
30
0
11
3.6121774039985786
21
-6.3302750975118105
31
0
0
ARC
5
102
100
AcDbEntity
8
0
100
AcDbCircle
10
3.878757531712933
20
-5.3664623379429166
30
0
40
1.0000000000000042
210
0
220
0
230
1
100
AcDbArc
50
148.0065006541997
51
254.53913459178128
0
LINE
5
103
100
AcDbEntity
8
0
100
AcDbLine
10
3.0306493175308225
20
-4.8366392948079096
30
0
11
6.6042220642152039
21
0.88371666122400327
31
0
0
ARC
5
104
100
AcDbEntity
8
0
100
AcDbCircle
10
7.3675194569790907
20
0.40687592240249476
30
0
40
0.89999999999999314
210
0
220
-0
230
1
100
AcDbArc
50
1.3230410622856088
51
148.00650065419916
0
ELLIPSE
5
105
100
AcDbEntity
8
0
100
AcDbEllipse
10
-9.0774610050914362e-13
20
-19.999844099974755
30
0
11
8.5138229752024901e-13
21
-87.899327384149785
31
0.0
40
0.096701536324697995
41
1.7254746673539831
42
1.8053372994078489
0
ARC
5
106
100
AcDbEntity
8
0
100
AcDbCircle
10
7.4986218175585684
20
-6.4714320253184265
30
0
40
0.90000000000000102
210
0
220
0
230
1
100
AcDbArc
50
-105.46086540821895
51
0.86325229173098594
0
LWPOLYLINE
5
107
100
AcDbEntity
8
0
100
AcDbPolyline
90
6
70
1
43
0.0
10
-6.5162538296528849
20
18.009397119740203
10
-7.5423022288840658
20
11.484468745926941
42
0.54805725652006121
10
-6.2794006057878926
20
10.367694565750426
10
-1.9507440510034617
20
11.606010472925918
42
0.49873989764212506
10
-1.3776766507263072
20
13.097266067354321
10
-4.6802848062795546
20
18.383878533992075
42
0.69417649550522442
0
LWPOLYLINE
5
108
100
AcDbEntity
8
0
100
AcDbPolyline
90
8
70
1
43
0.0
10
3.3360396429520867
20
-10.642296189470411
10
0.26641234748641329
20
-9.7938458597034312
42
0.13565756356945377
10
-0.2664123474882274
20
-9.7938458597034241
10
-3.336039642953903
20
-10.642296189470411
42
0.50154121987849931
10
-3.9177355096484812
20
-12.135978382640788
10
-0.84810821418281335
20
-17.049649385614611
42
0.55438321313537586
10
0.84810821418099813
20
-17.049649385614607
10
3.9177355096466693
20
-12.135978382640795
42
0.50154121987849454
0
LINE
5
109
100
AcDbEntity
8
0
100
AcDbLine
10
-6.6042220642170024
20
0.88371666122400772
30
0
11
-3.0306493175326277
21
-4.8366392948079167
31
0
0
ARC
5
110
100
AcDbEntity
8
0
100
AcDbCircle
10
-3.8787575317147374
20
-5.3664623379429255
30
0
40
1.0000000000000038
210
0
220
0
230
1
100
AcDbArc
50
-74.539134591781263
51
31.993499345800416
0
LINE
5
111
100
AcDbEntity
8
0
100
AcDbLine
10
-3.6121774040003833
20
-6.3302750975118194
30
0
11
-7.2586997026174576
21
-7.3388635089304088
31
0
0
ARC
5
112
100
AcDbEntity
8
0
100
AcDbCircle
10
-7.4986218175603705
20
-6.4714320253184079
30
0
40
0.8999999999999988
210
0
220
0
230
1
100
AcDbArc
50
179.13556237378026
51
285.46086540821847
0
ELLIPSE
5
113
100
AcDbEntity
8
0
100
AcDbEllipse
10
-9.0774610050914362e-13
20
-19.999844099974755
30
0
11
-8.5138229752024901e-13
21
-87.899327384149785
31
0.0
40
0.096701536324697995
41
4.4778477934128826
42
4.5577104254655669
0
ARC
5
114
100
AcDbEntity
8
0
100
AcDbCircle
10
-7.3675194569808964
20
0.40687592240249482
30
0
40
0.9000000000000028
210
0
220
-0
230
1
100
AcDbArc
50
31.993499345800846
51
178.67579194203839
0
LWPOLYLINE
5
115
100
AcDbEntity
8
0
100
AcDbPolyline
90
6
70
1
43
0.0
10
7.5423022288822485
20
11.484468745926929
10
6.5162538296510597
20
18.009397119740189
42
0.69417649550522953
10
4.6802848062777205
20
18.38387853399205
10
1.3776766507244897
20
13.097266067354312
42
0.49873989764212745
10
1.9507440510016516
20
11.606010472925913
10
6.2794006057860718
20
10.367694565750426
42
0.54805725652005499
0
LWPOLYLINE
5
116
100
AcDbEntity
8
0
100
AcDbPolyline
90
8
70
1
43
0.0
10
4.3044241456937655
20
7.1606185136841871
10
0.27504081390402396
20
8.3133201458678663
42
0.14022445672350881
10
-0.27504081390583135
20
8.3133201458678663
10
-4.3044241456955836
20
7.1606185136841924
42
0.49873989764214011
10
-4.8774915459727648
20
5.6693629192557804
10
-0.84810821418301185
20
-0.7806266500134651
42
0.55438321313561911
10
0.84810821418118909
20
-0.78062665001346732
10
4.8774915459709458
20
5.6693629192557848
42
0.49873989764213084
0
LWPOLYLINE
5
117
100
AcDbEntity
8
0
100
AcDbPolyline
90
4
70
1
43
0.0
10
-3.0000000000000471
20
-24.500000000000032
10
-3.0000000000006222
20
-36.659721620087431
42
0.99999999999999989
10
2.9999999999993254
20
-36.659721620087701
10
3.0000000000000382
20
-24.500000000000316
42
0.99999999999999989
0
LWPOLYLINE
5
118
100
AcDbEntity
8
0
100
AcDbPolyline
90
4
70
1
43
0.0
10
13.999995219279842
20
-13.329721620087653
42
-0.99999999999999989
10
15.999995219279839
20
-13.329721620087653
10
15.999986699681701
20
-31.329637505579928
42
-0.99999999999999989
10
13.999986699681921
20
-31.329636558953471
0
LWPOLYLINE
5
119
100
AcDbEntity
8
0
100
AcDbPolyline
90
4
70
1
43
0.0
10
-16.05487350670035
20
-13.332776173534578
10
-15.999900874952509
20
-31.329637661470304
42
1.0015284465778178
10
-13.99990554011177
20
-31.326583108023375
10
-14.054878171859613
20
-13.329721620087653
42
1.0015284465778178
0
LINE
5
120
100
AcDbEntity
8
0
100
AcDbLine
10
-15.499984112837282
20
-3.3297216200876534
30
0
11
-15.5147285921835
21
14.669453165734843
31
0
0
ARC
5
121
100
AcDbEntity
8
0
100
AcDbCircle
10
-14.514728927707413
20
14.670272340756728
30
0
40
1.0000000000000007
210
0
220
-0
230
1
100
AcDbArc
50
0.046933140763754266
51
180.04693527667897
0
LINE
5
122
100
AcDbEntity
8
0
100
AcDbLine
10
-13.514729263200788
20
14.671091478499889
30
0
11
-13.499984112837284
21
-3.3297216200876534
31
0
0
ARC
5
123
100
AcDbEntity
8
0
100
AcDbCircle
10
-14.499984112837282
20
-3.3297216200876543
30
0
40
0.99999999999999867
210
0
220
0
230
1
100
AcDbArc
50
-180
51
0
0
LWPOLYLINE
5
124
100
AcDbEntity
8
0
100
AcDbPolyline
90
4
70
1
43
0.0
10
16.056992288067509
20
-3.3265545745016278
10
15.999995497696794
20
14.670188123968643
42
1.0015847805414833
10
14.000000512798245
20
14.667021078382621
10
14.056997303168959
20
-3.3297216200876534
42
1.0015847805414833
0
CIRCLE
5
125
100
AcDbEntity
8
0
100
AcDbCircle
10
9.9999999999999272
20
-15.000000000000146
30
0
40
0.99999999999999978
210
0
220
0
230
1
0
CIRCLE
5
126
100
AcDbEntity
8
0
100
AcDbCircle
10
-10.000000000000002
20
-15.000000000000142
30
0
40
1.0000000000000009
210
0
220
0
230
1
0
CIRCLE
5
127
100
AcDbEntity
8
0
100
AcDbCircle
10
-9.9999999999999982
20
5.0000000000000018
30
0
40
0.99999999999999978
210
0
220
0
230
1
0
CIRCLE
5
128
100
AcDbEntity
8
0
100
AcDbCircle
10
9.9999999999999289
20
4.9999999999999982
30
0
40
0.99999999999999978
210
0
220
0
230
1
0
CIRCLE
5
129
100
AcDbEntity
8
0
100
AcDbCircle
10
14.249999999999893
20
-48.804059524067469
30
0
40
1.4750000000000085
210
0
220
0
230
1
0
CIRCLE
5
130
100
AcDbEntity
8
0
100
AcDbCircle
10
23.592537945500844
20
-56.335127491950637
30
0
40
1.4750000000000085
210
0
220
0
230
1
0
CIRCLE
5
131
100
AcDbEntity
8
0
100
AcDbCircle
10
23.592537945500855
20
39.675405871862772
30
0
40
1.4750000000000085
210
0
220
0
230
1
0
CIRCLE
5
132
100
AcDbEntity
8
0
100
AcDbCircle
10
-23.592537945501014
20
-56.335127491950345
30
0
40
1.4750000000000085
210
0
220
0
230
1
0
CIRCLE
5
133
100
AcDbEntity
8
0
100
AcDbCircle
10
-23.592537945500915
20
39.675405871862786
30
0
40
1.4750000000000085
210
0
220
0
230
1
0
CIRCLE
5
134
100
AcDbEntity
8
0
100
AcDbCircle
10
-14.250000000000053
20
-48.804059524067469
30
0
40
1.4750000000000085
210
0
220
0
230
1
0
CIRCLE
5
135
100
AcDbEntity
8
0
100
AcDbCircle
10
14.249999999999909
20
32.144337903979611
30
0
40
1.4750000000000085
210
0
220
0
230
1
0
CIRCLE
5
136
100
AcDbEntity
8
0
100
AcDbCircle
10
-14.249999999999964
20
32.144337903979626
30
0
40
1.4750000000000085
210
0
220
0
230
1
0
CIRCLE
5
137
100
AcDbEntity
8
0
100
AcDbCircle
10
9.9999999999999272
20
-15.000000000000146
30
0
40
0.99999999999999978
210
0
220
-0
230
1
0
CIRCLE
5
138
100
AcDbEntity
8
0
100
AcDbCircle
10
-10.000000000000002
20
-15.000000000000142
30
0
40
1.0000000000000009
210
0
220
-0
230
1
0
CIRCLE
5
139
100
AcDbEntity
8
0
100
AcDbCircle
10
-9.9999999999999982
20
5.0000000000000018
30
0
40
0.99999999999999978
210
0
220
-0
230
1
0
CIRCLE
5
140
100
AcDbEntity
8
0
100
AcDbCircle
10
9.9999999999999289
20
4.9999999999999982
30
0
40
0.99999999999999978
210
0
220
-0
230
1
0
LWPOLYLINE
5
141
100
AcDbEntity
8
0
100
AcDbPolyline
90
36
70
1
43
0.0
10
-18.999981489053543
20
-39.035660152092397
42
-0.22686211252193664
10
-24.586146529196267
20
-50.713842726603573
10
-28.287572589702421
20
-53.697581342638905
42
0.41421356237306389
10
-28.740440084106908
20
-57.915982820984581
10
-26.230084094812732
20
-61.030162136151773
42
0.4142135623731012
10
-22.011682616466672
20
-61.483029630556238
10
-11.465316023539724
20
-52.981549188211112
42
-0.17125858036272323
10
-2.0514810636860403
20
-49.659721620087652
10
2.0514810636864631
20
-49.659721620087652
42
-0.17125858036272371
10
11.465316023540117
20
-52.981549188211183
10
22.011682616466985
20
-61.483029630556416
42
0.41421356237309898
10
26.230084094813098
20
-61.030162136151993
10
28.740440084107281
20
-57.91598282098478
42
0.41421356237306084
10
28.287572589702812
20
-53.697581342639111
10
24.586146529198842
20
-50.713842726601079
42
-0.22686211252193664
10
18.999981489057479
20
-39.035660152092532
10
18.999995219279803
20
-18.729956772566709
10
18.999995219279974
20
8.7299543596946787
10
18.999981489054484
20
22.375938532004731
42
-0.22686211252193617
10
24.586146529197279
20
34.054121106515829
10
28.287572589703444
20
37.037859722551147
42
0.41421356237306295
10
28.740440084107966
20
41.25626120089683
10
26.230084094813794
20
44.37044051606405
42
0.41421356237310064
10
22.011682616467741
20
44.82330801046853
10
11.465316023540762
20
36.321827568123467
42
-0.17125858036272371
10
2.0514810636870351
20
33.00000000000005
10
-2.0514810636860314
20
33.000000000000085
42
-0.17125858036272404
10
-11.465316023539733
20
36.321827568123553
10
-22.011682616466643
20
44.823308010468722
42
0.41421356237310275
10
-26.230084094812756
20
44.370440516064235
10
-28.740440084106915
20
41.256261200897043
42
0.41421356237306395
10
-28.287572589702418
20
37.037859722551332
10
-24.586146529198423
20
34.054121106513335
42
-0.21641898198220172
10
-19.011869531162318
20
22.97302483202493
10
-19.022345735482375
20
-7.3891358586729616
10
-18.999607094875191
20
-3.2466635054147819
0
CIRCLE
5
142
100
AcDbEntity
8
0
100
AcDbCircle
10
14.249999999999893
20
-48.804059524067469
30
0
40
1.4750000000000085
210
0
220
-0
230
1
0
CIRCLE
5
143
100
AcDbEntity
8
0
100
AcDbCircle
10
23.592537945500844
20
-56.335127491950637
30
0
40
1.4750000000000085
210
0
220
-0
230
1
0
CIRCLE
5
144
100
AcDbEntity
8
0
100
AcDbCircle
10
23.592537945500855
20
39.675405871862772
30
0
40
1.4750000000000085
210
0
220
-0
230
1
0
LINE
5
145
100
AcDbEntity
8
0
100
AcDbLine
10
7.2586997026156466
20
-7.3388635089304275
30
0
11
3.6121774039985786
21
-6.3302750975118105
31
0
0
ARC
5
146
100
AcDbEntity
8
0
100
AcDbCircle
10
3.8787575317129326
20
-5.3664623379429166
30
0
40
1.0000000000000036
210
0
220
0
230
1
100
AcDbArc
50
148.00650065419967
51
254.53913459178128
0
LINE
5
147
100
AcDbEntity
8
0
100
AcDbLine
10
3.0306493175308225
20
-4.8366392948079096
30
0
11
6.6042220642152039
21
0.88371666122400327
31
0
0
ARC
5
148
100
AcDbEntity
8
0
100
AcDbCircle
10
7.3675194569790907
20
0.40687592240249454
30
0
40
0.89999999999999314
210
0
220
-0
230
1
100
AcDbArc
50
1.3230410622856088
51
148.00650065419913
0
ELLIPSE
5
149
100
AcDbEntity
8
0
100
AcDbEllipse
10
-9.0774610050914362e-13
20
-19.999844099974755
30
0
11
8.5138229752024901e-13
21
-87.899327384149785
31
0.0
40
0.096701536324697995
41
1.725474667353982
42
1.8053372994078489
0
ARC
5
150
100
AcDbEntity
8
0
100
AcDbCircle
10
7.4986218175585684
20
-6.4714320253184257
30
0
40
0.90000000000000235
210
0
220
0
230
1
100
AcDbArc
50
-105.46086540821895
51
0.86325229172423057
0
CIRCLE
5
151
100
AcDbEntity
8
0
100
AcDbCircle
10
-23.592537945501014
20
-56.335127491950345
30
0
40
1.4750000000000085
210
0
220
-0
230
1
0
LWPOLYLINE
5
152
100
AcDbEntity
8
0
100
AcDbPolyline
90
6
70
1
43
0.0
10
-6.5162538296528849
20
18.009397119740203
10
-7.5423022288840658
20
11.484468745926941
42
0.54805725652006121
10
-6.2794006057878926
20
10.367694565750426
10
-1.9507440510034617
20
11.606010472925918
42
0.49873989764212473
10
-1.3776766507263072
20
13.097266067354321
10
-4.6802848062795546
20
18.383878533992075
42
0.69417649550522442
0
LWPOLYLINE
5
153
100
AcDbEntity
8
0
100
AcDbPolyline
90
8
70
1
43
0.0
10
3.3360396429520867
20
-10.642296189470411
10
0.26641234748641335
20
-9.7938458597034312
42
0.13565756356945194
10
-0.2664123474882274
20
-9.7938458597034241
10
-3.336039642953903
20
-10.642296189470411
42
0.50154121987850009
10
-3.9177355096484812
20
-12.135978382640788
10
-0.84810821418281312
20
-17.049649385614611
42
0.55438321313537586
10
0.84810821418099813
20
-17.049649385614607
10
3.9177355096466693
20
-12.135978382640795
42
0.50154121987849409
0
LINE
5
154
100
AcDbEntity
8
0
100
AcDbLine
10
-6.6042220642170024
20
0.88371666122400772
30
0
11
-3.0306493175326277
21
-4.8366392948079167
31
0
0
ARC
5
155
100
AcDbEntity
8
0
100
AcDbCircle
10
-3.8787575317147382
20
-5.3664623379429255
30
0
40
1.000000000000004
210
0
220
0
230
1
100
AcDbArc
50
-74.539134591781263
51
31.993499345800402
0
LINE
5
156
100
AcDbEntity
8
0
100
AcDbLine
10
-3.6121774040003833
20
-6.3302750975118194
30
0
11
-7.2586997026174576
21
-7.3388635089304088
31
0
0
ARC
5
157
100
AcDbEntity
8
0
100
AcDbCircle
10
-7.4986218175603705
20
-6.4714320253184079
30
0
40
0.8999999999999988
210
0
220
0
230
1
100
AcDbArc
50
179.13556237378026
51
285.46086540821847
0
ELLIPSE
5
158
100
AcDbEntity
8
0
100
AcDbEllipse
10
-9.0774610050914362e-13
20
-19.999844099974755
30
0
11
-8.5138229752024901e-13
21
-87.899327384149785
31
0.0
40
0.096701536324697995
41
4.4778477934128826
42
4.5577104254655669
0
ARC
5
159
100
AcDbEntity
8
0
100
AcDbCircle
10
-7.3675194569808964
20
0.40687592240249515
30
0
40
0.90000000000000246
210
0
220
-0
230
1
100
AcDbArc
50
31.993499345800835
51
178.67579194203918
0
CIRCLE
5
160
100
AcDbEntity
8
0
100
AcDbCircle
10
-23.592537945500915
20
39.675405871862786
30
0
40
1.4750000000000085
210
0
220
-0
230
1
0
CIRCLE
5
161
100
AcDbEntity
8
0
100
AcDbCircle
10
-14.250000000000053
20
-48.804059524067469
30
0
40
1.4750000000000085
210
0
220
-0
230
1
0
LWPOLYLINE
5
162
100
AcDbEntity
8
0
100
AcDbPolyline
90
6
70
1
43
0.0
10
7.5423022288822485
20
11.484468745926929
10
6.5162538296510597
20
18.009397119740189
42
0.69417649550522809
10
4.6802848062777205
20
18.38387853399205
10
1.3776766507244897
20
13.097266067354312
42
0.49873989764212778
10
1.9507440510016516
20
11.606010472925913
10
6.2794006057860718
20
10.367694565750426
42
0.54805725652005544
0
LWPOLYLINE
5
163
100
AcDbEntity
8
0
100
AcDbPolyline
90
8
70
1
43
0.0
10
4.3044241456937655
20
7.1606185136841871
10
0.27504081390402391
20
8.3133201458678663
42
0.14022445672350825
10
-0.27504081390583135
20
8.3133201458678663
10
-4.3044241456955836
20
7.1606185136841924
42
0.49873989764214061
10
-4.8774915459727648
20
5.6693629192557804
10
-0.84810821418301185
20
-0.78062665001346498
42
0.55438321313561878
10
0.84810821418118909
20
-0.78062665001346732
10
4.8774915459709458
20
5.6693629192557848
42
0.49873989764213028
0
LWPOLYLINE
5
164
100
AcDbEntity
8
0
100
AcDbPolyline
90
4
70
1
43
0.0
10
-3.0000000000000471
20
-24.500000000000032
10
-3.0000000000006222
20
-36.659721620087431
42
0.99999999999999989
10
2.9999999999993254
20
-36.659721620087701
10
3.0000000000000382
20
-24.500000000000316
42
0.99999999999999989
0
CIRCLE
5
165
100
AcDbEntity
8
0
100
AcDbCircle
10
14.249999999999909
20
32.144337903979611
30
0
40
1.4750000000000085
210
0
220
-0
230
1
0
CIRCLE
5
166
100
AcDbEntity
8
0
100
AcDbCircle
10
-14.249999999999964
20
32.144337903979626
30
0
40
1.4750000000000085
210
0
220
-0
230
1
0
LWPOLYLINE
5
167
100
AcDbEntity
8
0
100
AcDbPolyline
90
4
70
1
43
0.0
10
13.999995219279842
20
-13.329721620087657
42
-0.99999999999999989
10
15.999995219279839
20
-13.329721620087653
10
15.999986699681701
20
-31.329637505579928
42
-0.99999999999999989
10
13.999986699681921
20
-31.329636558953471
0
LWPOLYLINE
5
168
100
AcDbEntity
8
0
100
AcDbPolyline
90
4
70
1
43
0.0
10
-16.05487350670035
20
-13.332776173534578
10
-15.999900874952509
20
-31.329637661470304
42
1.0015284465778178
10
-13.99990554011177
20
-31.326583108023375
10
-14.054878171859613
20
-13.329721620087653
42
1.0015284465778178
0
LINE
5
169
100
AcDbEntity
8
0
100
AcDbLine
10
-15.499984112837282
20
-3.3297216200876534
30
0
11
-15.5147285921835
21
14.669453165734843
31
0
0
ARC
5
170
100
AcDbEntity
8
0
100
AcDbCircle
10
-14.514728927707413
20
14.670272340756732
30
0
40
1.0000000000000007
210
0
220
-0
230
1
100
AcDbArc
50
0.046933140763754266
51
180.04693527667897
0
LINE
5
171
100
AcDbEntity
8
0
100
AcDbLine
10
-13.514729263200788
20
14.671091478499889
30
0
11
-13.499984112837284
21
-3.3297216200876534
31
0
0
ARC
5
172
100
AcDbEntity
8
0
100
AcDbCircle
10
-14.499984112837282
20
-3.3297216200876556
30
0
40
0.99999999999999867
210
0
220
0
230
1
100
AcDbArc
50
-180
51
0
0
LWPOLYLINE
5
173
100
AcDbEntity
8
0
100
AcDbPolyline
90
4
70
1
43
0.0
10
16.056992288067509
20
-3.3265545745016278
10
15.999995497696794
20
14.670188123968643
42
1.0015847805414833
10
14.000000512798245
20
14.667021078382621
10
14.056997303168959
20
-3.3297216200876534
42
1.0015847805414833
0
ENDSEC
0
SECTION
2
OBJECTS
0
DICTIONARY
5
C
100
AcDbDictionary
3
ACAD_GROUP
350
D
3
ACAD_MLINESTYLE
350
17
0
DICTIONARY
5
D
100
AcDbDictionary
0
DICTIONARY
5
1A
330
C
100
AcDbDictionary
0
DICTIONARY
5
17
100
AcDbDictionary
0
ENDSEC
0
EOF
