0
SECTION
2
HEADER
9
$INSUNITS
70
4
9
$ACADVER
1
AC1014
9
$HANDSEED
5
FFFF
0
ENDSEC
0
SECTION
2
TABLES
0
TABLE
2
VPORT
5
8
100
AcDbSymbolTable
0
ENDTAB
0
TABLE
2
LTYPE
5
5
100
AcDbSymbolTable
0
LTYPE
5
14
100
AcDbSymbolTableRecord
100
AcDbLinetypeTableRecord
2
BYBLOCK
70
0
0
LTYPE
5
15
100
AcDbSymbolTableRecord
100
AcDbLinetypeTableRecord
2
BYLAYER
70
0
0
ENDTAB
0
TABLE
2
LAYER
5
2
100
AcDbSymbolTable
70
2
0
LAYER
5
50
100
AcDbSymbolTableRecord
100
AcDbLayerTableRecord
2
0
70
0
6
CONTINUOUS
0
ENDTAB
0
TABLE
2
STYLE
5
3
100
AcDbSymbolTable
70
1
0
STYLE
5
11
100
AcDbSymbolTableRecord
100
AcDbTextStyleTableRecord
2
STANDARD
70
0
0
ENDTAB
0
TABLE
2
VIEW
5
6
100
AcDbSymbolTable
70
0
0
ENDTAB
0
TABLE
2
UCS
5
7
100
AcDbSymbolTable
70
0
0
ENDTAB
0
TABLE
2
APPID
5
9
100
AcDbSymbolTable
70
2
0
APPID
5
12
100
AcDbSymbolTableRecord
100
AcDbRegAppTableRecord
2
ACAD
70
0
0
ENDTAB
0
TABLE
2
DIMSTYLE
5
A
100
AcDbSymbolTable
70
1
0
ENDTAB
0
TABLE
2
BLOCK_RECORD
5
1
100
AcDbSymbolTable
70
1
0
BLOCK_RECORD
5
1F
100
AcDbSymbolTableRecord
100
AcDbBlockTableRecord
2
*MODEL_SPACE
0
BLOCK_RECORD
5
1B
100
AcDbSymbolTableRecord
100
AcDbBlockTableRecord
2
*PAPER_SPACE
0
ENDTAB
0
ENDSEC
0
SECTION
2
BLOCKS
0
BLOCK
5
20
100
AcDbEntity
100
AcDbBlockBegin
2
*MODEL_SPACE
0
ENDBLK
5
21
100
AcDbEntity
100
AcDbBlockEnd
0
BLOCK
5
1C
100
AcDbEntity
100
AcDbBlockBegin
2
*PAPER_SPACE
0
ENDBLK
5
1D
100
AcDbEntity
100
AcDbBlockEnd
0
ENDSEC
0
SECTION
2
ENTITIES
0
LWPOLYLINE
5
100
100
AcDbEntity
8
0
100
AcDbPolyline
90
4
70
1
43
0.0
10
-13.250000000000242
20
3.8298608100438263
42
-0.99999999999999989
10
-11.250000000000213
20
3.8298608100438258
10
-11.250000000000142
20
-14.17013918995643
42
-0.99999999999999989
10
-13.250000000000313
20
-14.17013918995643
0
CIRCLE
5
101
100
AcDbEntity
8
0
100
AcDbCircle
10
14.249999999999687
20
-32.144337903979832
30
0
40
1.4999999999999858
0
CIRCLE
5
102
100
AcDbEntity
8
0
100
AcDbCircle
10
-14.250000000000043
20
-32.144337903979832
30
0
40
1.4999999999999858
0
LWPOLYLINE
5
103
100
AcDbEntity
8
0
100
AcDbPolyline
90
4
70
1
43
0.0
10
-3.0000000000027427
20
-22.588861478386164
42
-0.99999999999999989
10
-4.5000000000027995
20
-22.588861478386448
10
-4.5000000000027285
20
-17.588861478386164
42
-0.99999999999999989
10
-3.0000000000028137
20
-17.58886147838588
0
LWPOLYLINE
5
104
100
AcDbEntity
8
0
100
AcDbPolyline
90
4
70
1
43
0.0
10
2.9999999999972715
20
-17.58886147838588
42
-0.99999999999999989
10
4.4999999999971863
20
-17.588861478386164
10
4.4999999999971863
20
-22.588861478386448
42
-0.99999999999999989
10
2.9999999999972715
20
-22.588861478386164
0
LWPOLYLINE
5
105
100
AcDbEntity
8
0
100
AcDbPolyline
90
4
70
1
43
0.0
10
11.25
20
3.8298608100438258
42
-0.99999999999999989
10
13.249999999999886
20
3.8298608100438258
10
13.249999999999957
20
-14.17013918995643
42
-0.99999999999999989
10
11.249999999999929
20
-14.17013918995643
0
LWPOLYLINE
5
106
100
AcDbEntity
8
0
100
AcDbPolyline
90
4
70
1
43
0.0
10
-13.250000000000242
20
31.829860810043513
42
-0.99999999999999989
10
-11.250000000000213
20
31.829860810043513
10
-11.250000000000213
20
13.829860810043542
42
-0.99999999999999989
10
-13.250000000000242
20
13.829860810043542
0
CIRCLE
5
107
100
AcDbEntity
8
0
100
AcDbCircle
10
-14.249999999999892
20
48.804059524067469
30
0
40
1.4750000000000085
0
LWPOLYLINE
5
108
100
AcDbEntity
8
0
100
AcDbPolyline
90
4
70
1
43
0.0
10
11.249999999999929
20
31.829860810043513
42
-0.99999999999999989
10
13.249999999999957
20
31.829860810043513
10
13.249999999999886
20
13.829860810043542
42
-0.99999999999999989
10
11.25
20
13.829860810043542
0
CIRCLE
5
109
100
AcDbEntity
8
0
100
AcDbCircle
10
14.249999999999909
20
48.804059524067469
30
0
40
1.4750000000000085
0
ELLIPSE
5
110
100
AcDbEntity
8
0
100
AcDbEllipse
10
9.0774610050914362e-13
20
19.999844099974755
30
0
11
-8.5138229752024901e-13
21
87.899327384149785
31
0.0
40
0.096701536324698009
41
1.725474720943776
42
1.8053373529963785
0
ARC
5
111
100
AcDbEntity
8
0
100
AcDbCircle
10
-7.4986218175585684
20
6.4714320253184257
30
0
40
0.90000000000000102
100
AcDbArc
50
74.539134591781036
51
180.86354862535435
0
LINE
5
112
100
AcDbEntity
8
0
100
AcDbLine
10
-7.2586997026156466
20
7.3388635089304266
30
0
11
-3.6121774039985795
21
6.3302750975118096
31
0
0
ARC
5
113
100
AcDbEntity
8
0
100
AcDbCircle
10
-3.878757531712933
20
5.3664623379429166
30
0
40
1.0000000000000042
100
AcDbArc
50
-31.993499345800302
51
74.539134591781306
0
LINE
5
114
100
AcDbEntity
8
0
100
AcDbLine
10
-3.0306493175308225
20
4.8366392948079096
30
0
11
-6.6042220642152021
21
-0.8837166612240055
31
0
0
ARC
5
115
100
AcDbEntity
8
0
100
AcDbCircle
10
-7.3675194569790889
20
-0.40687592240249471
30
0
40
0.89999999999999303
100
AcDbArc
50
181.32362455756035
51
328.00650065419904
0
LWPOLYLINE
5
116
100
AcDbEntity
8
0
100
AcDbPolyline
90
8
70
1
43
0.0
10
0.26641234748822684
20
9.7938458597034241
10
3.336039642953903
20
10.642296189470413
42
0.50154121987849687
10
3.9177355096484803
20
12.135978382640786
10
0.84810821418281312
20
17.049649385614611
42
0.55438321313537586
10
-0.84810821418099813
20
17.049649385614607
10
-3.9177355096466684
20
12.135978382640795
42
0.5015412198784962
10
-3.3360396429520867
20
10.642296189470411
10
-0.26641234748641301
20
9.7938458597034312
42
0.13565756356945155
0
ELLIPSE
5
117
100
AcDbEntity
8
0
100
AcDbEllipse
10
9.0774610050914362e-13
20
19.999844099974755
30
0
11
-8.5138229752024901e-13
21
87.899327384149785
31
0.0
40
0.096701536324698009
41
1.5196188882201325
42
1.6219737117798649
0
ARC
5
118
100
AcDbEntity
8
0
100
AcDbCircle
10
-7.5888821662968811
20
24.491885227617587
30
0
40
0.89999999999999836
100
AcDbArc
50
31.993499345819071
51
179.71620132193442
0
LINE
5
119
100
AcDbEntity
8
0
100
AcDbLine
10
-6.8255847735331425
20
24.96872596643934
30
0
11
-4.0524532142527017
21
20.529667143109958
31
0
0
ARC
5
120
100
AcDbEntity
8
0
100
AcDbCircle
10
-4.9005614284346386
20
19.999844099974666
30
0
40
1.0000000000000078
100
AcDbArc
50
-31.993499345819384
51
31.993499345819384
0
LINE
5
121
100
AcDbEntity
8
0
100
AcDbLine
10
-4.0524532142527017
20
19.470021056839375
30
0
11
-6.8255847735330537
21
15.030962233510241
31
0
0
ARC
5
122
100
AcDbEntity
8
0
100
AcDbCircle
10
-7.5888821662967931
20
15.507802972331994
30
0
40
0.89999999999999902
100
AcDbArc
50
180.28379867806558
51
328.00650065418102
0
LWPOLYLINE
5
123
100
AcDbEntity
8
0
100
AcDbPolyline
90
8
70
1
43
0.0
10
-4.3044241456937655
20
-7.160618513684188
10
-0.27504081390402391
20
-8.3133201458678663
42
0.14022445672350869
10
0.27504081390583135
20
-8.3133201458678663
10
4.3044241456955836
20
-7.1606185136841916
42
0.4987398976421395
10
4.8774915459727648
20
-5.6693629192557804
10
0.84810821418301152
20
0.7806266500134651
42
0.55438321313561922
10
-0.84810821418118854
20
0.78062665001346732
10
-4.8774915459709458
20
-5.6693629192557848
42
0.49873989764213089
0
LINE
5
124
100
AcDbEntity
8
0
100
AcDbLine
10
6.8255847735348665
20
15.030962233510241
30
0
11
4.0524532142545091
21
19.470021056839386
31
0
0
ARC
5
125
100
AcDbEntity
8
0
100
AcDbCircle
10
4.9005614284364505
20
19.999844099974673
30
0
40
1.0000000000000089
100
AcDbArc
50
148.00650065418142
51
211.99349934581909
0
LINE
5
126
100
AcDbEntity
8
0
100
AcDbLine
10
4.0524532142545038
20
20.529667143109954
30
0
11
6.8255847735349464
21
24.96872596643934
31
0
0
ARC
5
127
100
AcDbEntity
8
0
100
AcDbCircle
10
7.5888821662986867
20
24.491885227617587
30
0
40
0.90000000000000124
100
AcDbArc
50
0.28379867806558606
51
148.006500654181
0
ELLIPSE
5
128
100
AcDbEntity
8
0
100
AcDbEllipse
10
9.0774610050914362e-13
20
19.999844099974755
30
0
11
8.5138229752024901e-13
21
87.899327384149785
31
0.0
40
0.096701536324698009
41
4.661211488219914
42
4.7635664189594538
0
ARC
5
129
100
AcDbEntity
8
0
100
AcDbCircle
10
7.5888821662986032
20
15.507802972332003
30
0
40
0.90000000000000102
100
AcDbArc
50
211.99349934581963
51
359.71590182947608
0
LWPOLYLINE
5
130
100
AcDbEntity
8
0
100
AcDbPolyline
90
8
70
1
43
0.0
10
-3.9177355096466657
20
27.863709817308717
10
-0.84810821418099536
20
22.950038814334903
42
0.55438321313537553
10
0.84810821418281113
20
22.950038814334903
10
3.9177355096484856
20
27.863709817308717
42
0.50154121987849487
10
3.336039642953895
20
29.357392010479092
10
0.26641234748822235
20
30.205842340246079
42
0.13565756356945832
10
-0.2664123474864144
20
30.205842340246079
10
-3.3360396429520867
20
29.357392010479096
42
0.50154121987849787
0
ELLIPSE
5
131
100
AcDbEntity
8
0
100
AcDbEllipse
10
9.0774610050914362e-13
20
19.999844099974755
30
0
11
8.5138229752024901e-13
21
87.899327384149785
31
0.0
40
0.096701536324698009
41
4.4778478470026757
42
4.5577104790562233
0
ARC
5
132
100
AcDbEntity
8
0
100
AcDbCircle
10
7.3675194569808964
20
-0.40687592240249476
30
0
40
0.9000000000000028
100
AcDbArc
50
211.99349934580087
51
358.67608368966455
0
LINE
5
133
100
AcDbEntity
8
0
100
AcDbLine
10
6.6042220642170024
20
-0.88371666122400772
30
0
11
3.030649317532629
21
4.8366392948079167
31
0
0
ARC
5
134
100
AcDbEntity
8
0
100
AcDbCircle
10
3.8787575317147365
20
5.3664623379429255
30
0
40
1.0000000000000036
100
AcDbArc
50
105.46086540821865
51
211.99349934580047
0
LINE
5
135
100
AcDbEntity
8
0
100
AcDbLine
10
3.6121774040003833
20
6.3302750975118194
30
0
11
7.2586997026174584
21
7.3388635089304106
31
0
0
ARC
5
136
100
AcDbEntity
8
0
100
AcDbCircle
10
7.4986218175603696
20
6.471432025318407
30
0
40
0.89999999999999858
100
AcDbArc
50
-0.86384495898143976
51
105.46086540821825
0
LWPOLYLINE
5
137
100
AcDbEntity
8
0
100
AcDbPolyline
90
32
70
1
43
0.0
10
-7.4390718441452162
20
48.90197743747305
42
-0.12299043313979376
10
-5.6766435884861401
20
43.870798057064668
42
0.89141896182739233
10
5.2483264530250429
20
43.624976789581531
42
-0.11158704171156394
10
6.9541204377619392
20
48.164513635023695
10
9.2182732565505798
20
51.607602416893599
42
-0.31953318326526714
10
12.461315338907376
20
52.867483831432445
10
15.109184893846937
20
52.196964078897338
42
-0.34330161239281465
10
17.749999999999932
20
48.804059524067185
10
17.749999999999915
20
39.366022230505536
42
0.016611792181535152
10
18.117441907567873
20
28.309403313145157
42
-0.016611792181520986
10
19
20
1.7525291529740672
10
19.000000000000007
20
-13.948781123454882
42
-0.057257453520947757
10
18.088032941159923
20
-21.886413654782881
42
0.090672695673943607
10
17.750000000000082
20
-28.933772307297474
10
17.749999999999947
20
-32.144337903980116
42
-0.36338597386698729
10
14.864881735567931
20
-35.589903235136156
10
10.554217671151067
20
-36.359167012377824
42
-0.3857917957158189
10
8.2777893813993586
20
-34.932597069585476
42
0.7572075372957382
10
-8.2777893813993551
20
-34.932597069585469
42
-0.38579179571581901
10
-10.554217671151065
20
-36.359167012377824
10
-14.864881735567899
20
-35.589903235135978
42
-0.36338597386701554
10
-17.750000000000057
20
-32.144337903980116
10
-17.750000000000078
20
-28.933772307297474
42
0.090672695673942899
10
-18.088032941159923
20
-21.886413654782892
42
-0.057257453520947757
10
-19
20
-13.948781123454888
10
-19.000000000000085
20
1.7525291529750575
42
-0.016611792181531422
10
-18.117441907567802
20
28.309403313146685
42
0.016611792181524698
10
-17.749999999999897
20
39.366022230505408
10
-17.749999999999574
20
48.804059524067192
42
-0.34330161239281265
10
-15.10918489384685
20
52.196964078896997
10
-12.461315338907376
20
52.867483831432445
42
-0.31953318326526714
10
-9.2182732565505798
20
51.607602416893599
0
ENDSEC
0
SECTION
2
OBJECTS
0
DICTIONARY
5
C
100
AcDbDictionary
3
ACAD_GROUP
350
D
3
ACAD_MLINESTYLE
350
17
0
DICTIONARY
5
D
100
AcDbDictionary
0
DICTIONARY
5
1A
330
C
100
AcDbDictionary
0
DICTIONARY
5
17
100
AcDbDictionary
0
ENDSEC
0
EOF
