0
SECTION
2
HEADER
9
$INSUNITS
70
4
9
$ACADVER
1
AC1014
9
$HANDSEED
5
FFFF
0
ENDSEC
0
SECTION
2
TABLES
0
TABLE
2
VPORT
5
8
100
AcDbSymbolTable
0
ENDTAB
0
TABLE
2
LTYPE
5
5
100
AcDbSymbolTable
0
LTYPE
5
14
100
AcDbSymbolTableRecord
100
AcDbLinetypeTableRecord
2
BYBLOCK
70
0
0
LTYPE
5
15
100
AcDbSymbolTableRecord
100
AcDbLinetypeTableRecord
2
BYLAYER
70
0
0
ENDTAB
0
TABLE
2
LAYER
5
2
100
AcDbSymbolTable
70
2
0
LAYER
5
50
100
AcDbSymbolTableRecord
100
AcDbLayerTableRecord
2
0
70
0
6
CONTINUOUS
0
ENDTAB
0
TABLE
2
STYLE
5
3
100
AcDbSymbolTable
70
1
0
STYLE
5
11
100
AcDbSymbolTableRecord
100
AcDbTextStyleTableRecord
2
STANDARD
70
0
0
ENDTAB
0
TABLE
2
VIEW
5
6
100
AcDbSymbolTable
70
0
0
ENDTAB
0
TABLE
2
UCS
5
7
100
AcDbSymbolTable
70
0
0
ENDTAB
0
TABLE
2
APPID
5
9
100
AcDbSymbolTable
70
2
0
APPID
5
12
100
AcDbSymbolTableRecord
100
AcDbRegAppTableRecord
2
ACAD
70
0
0
ENDTAB
0
TABLE
2
DIMSTYLE
5
A
100
AcDbSymbolTable
70
1
0
ENDTAB
0
TABLE
2
BLOCK_RECORD
5
1
100
AcDbSymbolTable
70
1
0
BLOCK_RECORD
5
1F
100
AcDbSymbolTableRecord
100
AcDbBlockTableRecord
2
*MODEL_SPACE
0
BLOCK_RECORD
5
1B
100
AcDbSymbolTableRecord
100
AcDbBlockTableRecord
2
*PAPER_SPACE
0
ENDTAB
0
ENDSEC
0
SECTION
2
BLOCKS
0
BLOCK
5
20
100
AcDbEntity
100
AcDbBlockBegin
2
*MODEL_SPACE
0
ENDBLK
5
21
100
AcDbEntity
100
AcDbBlockEnd
0
BLOCK
5
1C
100
AcDbEntity
100
AcDbBlockBegin
2
*PAPER_SPACE
0
ENDBLK
5
1D
100
AcDbEntity
100
AcDbBlockEnd
0
ENDSEC
0
SECTION
2
ENTITIES
0
LWPOLYLINE
5
100
100
AcDbEntity
8
0
100
AcDbPolyline
90
4
70
1
43
0.0
10
3.0000000000006488
20
-36.659721620087794
42
-0.99999999999999989
10
-2.9999999999993587
20
-36.659721620087339
10
-2.9999999999986793
20
-24.500000000000238
42
-0.99999999999999989
10
3.0000000000013261
20
-24.500000000000458
0
LWPOLYLINE
5
101
100
AcDbEntity
8
0
100
AcDbPolyline
90
32
70
1
43
0.0
10
14.749995219281079
20
24.044337903979567
10
14.749995219281068
20
15.376697949756144
42
-0.19891236737964624
10
13.871315562840852
20
13.255377606196594
10
7.8079689783227941
20
7.1920310216778542
42
0.66817863791928134
10
10.000000000001323
20
1.8999999999998622
10
11.749995219281306
20
1.8999999999998622
42
-0.41421356237309326
10
14.749995219281304
20
-1.1000000000001353
10
14.749995219281299
20
-8.9000000000003325
42
-0.41421356237309548
10
11.749995219281306
20
-11.900000000000324
10
10.000000000001323
20
-11.900000000000324
42
0.66817863791931931
10
7.8079689783227924
20
-17.192031021678535
10
13.871315562840627
20
-23.255377606196824
42
-0.1989123673796753
10
14.749995219281079
20
-25.376697949756593
10
14.749995219281086
20
-40.704059524067588
42
-0.41421356237309503
10
9.7499952192810788
20
-45.704059524067596
10
-9.7499952192800201
20
-45.704059524067596
42
-0.41421356237309553
10
-14.74999521928002
20
-40.704059524067588
10
-14.74999521928002
20
-25.376697949756593
42
-0.19891236737967785
10
-13.871315562839568
20
-23.25537760619682
10
-7.8079689783219628
20
-17.192031021678538
42
0.66817863791932119
10
-10.000000000000266
20
-11.900000000000324
10
-11.749995219280249
20
-11.900000000000324
42
-0.41421356237309337
10
-14.749995219280247
20
-8.9000000000003237
10
-14.749995219280251
20
-1.1000000000001449
42
-0.41421356237309631
10
-11.749995219280249
20
1.8999999999998622
10
-10.000000000000268
20
1.8999999999998614
42
0.66817863791927312
10
-7.8079689783219646
20
7.1920310216778471
10
-13.871315562839794
20
13.255377606196586
42
-0.19891236737965187
10
-14.74999521928002
20
15.376697949756144
10
-14.749995219280025
20
24.044337903979567
42
-0.41421356237309531
10
-9.7499952192800201
20
29.044337903979567
10
9.7499952192810788
20
29.044337903979564
42
-0.41421356237309531
0
ENDSEC
0
SECTION
2
OBJECTS
0
DICTIONARY
5
C
100
AcDbDictionary
3
ACAD_GROUP
350
D
3
ACAD_MLINESTYLE
350
17
0
DICTIONARY
5
D
100
AcDbDictionary
0
DICTIONARY
5
1A
330
C
100
AcDbDictionary
0
DICTIONARY
5
17
100
AcDbDictionary
0
ENDSEC
0
EOF
